v 0.3200001120567322 0.07020550221204758 0.32110416889190674
v -0.3199997842311859 0.07020550221204758 0.32110416889190674
v 0.3657144010066986 0.018777288496494293 0.2639613151550293
v -0.36571404337882996 0.018777288496494293 0.2639613151550293
v 0.40000009536743164 -0.00979448389261961 0.18396131694316864
v -0.3999997675418854 -0.00979448389261961 0.18396131694316864
v 0.2571426331996918 -0.06693733483552933 0.212533101439476
v -0.2571429908275604 -0.06693733483552933 0.212533101439476
v 0.2571426331996918 -0.026936989277601242 0.2868184447288513
v -0.2571429908275604 -0.026936989277601242 0.2868184447288513
v 0.2571426331996918 0.04734836146235466 0.33253273367881775
v -0.2571429908275604 0.04734836146235466 0.33253273367881775
v 0.19999979436397552 0.07020550221204758 0.34396129846572876
v -0.20000013709068298 0.07020550221204758 0.34396129846572876
v 0.14857158064842224 0.018777288496494293 0.3039616644382477
v -0.1485712230205536 0.018777288496494293 0.3039616644382477
v 0.11428587138652802 -0.00979448389261961 0.23539023101329803
v -0.11428552120923996 -0.00979448389261961 0.23539023101329803
v 0.05714302137494087 0.12734834849834442 0.24110417068004608
v -0.05714267119765282 0.12734834849834442 0.24110417068004608
v 0.10285729914903641 0.12734834849834442 0.3039616644382477
v -0.10285694897174835 0.12734834849834442 0.3039616644382477
v 0.1771426498889923 0.12734834849834442 0.34396129846572876
v -0.17714300751686096 0.12734834849834442 0.34396129846572876
v 0.19999979436397552 0.19020582735538483 0.34396129846572876
v -0.20000013709068298 0.19020582735538483 0.34396129846572876
v 0.14857158064842224 0.23592010140419006 0.3039616644382477
v -0.1485712230205536 0.23592010140419006 0.3039616644382477
v 0.11428587138652802 0.2702058255672455 0.23539023101329803
v -0.11428552120923996 0.2702058255672455 0.23539023101329803
v 0.2571426331996918 0.32734864950180054 0.212533101439476
v -0.2571429908275604 0.32734864950180054 0.212533101439476
v 0.2571426331996918 0.2816343903541565 0.2868184447288513
v -0.2571429908275604 0.2816343903541565 0.2868184447288513
v 0.2571426331996918 0.21306297183036804 0.33253273367881775
v -0.2571429908275604 0.21306297183036804 0.33253273367881775
v 0.3200001120567322 0.19020582735538483 0.32110416889190674
v -0.3199997842311859 0.19020582735538483 0.32110416889190674
v 0.3657144010066986 0.23592010140419006 0.2639613151550293
v -0.36571404337882996 0.23592010140419006 0.2639613151550293
v 0.40000009536743164 0.2702058255672455 0.18396131694316864
v -0.3999997675418854 0.2702058255672455 0.18396131694316864
v 0.4571429491043091 0.12734834849834442 0.17253275215625763
v -0.45714259147644043 0.12734834849834442 0.17253275215625763
v 0.41142866015434265 0.12734834849834442 0.2525327503681183
v -0.4114283323287964 0.12734834849834442 0.2525327503681183
v 0.3428572714328766 0.12734834849834442 0.3153902292251587
v -0.34285691380500793 0.12734834849834442 0.3153902292251587
v 0.34857118129730225 0.12734834849834442 0.3268187940120697
v -0.3485715389251709 0.12734834849834442 0.3268187940120697
v 0.3257140517234802 0.19591976702213287 0.33253273367881775
v -0.3257144093513489 0.19591976702213287 0.33253273367881775
v 0.2571426331996918 0.22449153661727905 0.3496759235858917
v -0.2571429908275604 0.22449153661727905 0.3496759235858917
v 0.19428585469722748 0.19591976702213287 0.36110448837280273
v -0.19428551197052002 0.19591976702213287 0.36110448837280273
v 0.1657140851020813 0.12734834849834442 0.36110448837280273
v -0.16571442782878876 0.12734834849834442 0.36110448837280273
v 0.19428585469722748 0.06449156254529953 0.36110448837280273
v -0.19428551197052002 0.06449156254529953 0.36110448837280273
v 0.2571426331996918 0.12734834849834442 0.3668184280395508
v -0.2571429908275604 0.12734834849834442 0.3668184280395508
v 0.2571426331996918 0.03591979295015335 0.3496759235858917
v -0.2571429908275604 0.03591979295015335 0.3496759235858917
v 0.3257140517234802 0.06449156254529953 0.33253273367881775
v -0.3257144093513489 0.06449156254529953 0.33253273367881775
v 1.7438613042486395e-07 0.26449117064476013 0.3039616644382477
v 1.7438613042486395e-07 0.20734833180904388 0.36110448837280273
v 1.7438613042486395e-07 -0.5469372272491455 0.29824700951576233
v 1.7438613042486395e-07 -0.2840801477432251 0.33253273367881775
v 1.7438613042486395e-07 -0.18693695962429047 0.34396129846572876
v 1.7438613042486395e-07 -0.6155086755752563 0.2868184447288513
v 1.7438613042486395e-07 0.24734868109226227 0.2011045217514038
v 1.7438613042486395e-07 0.367348313331604 0.1782473921775818
v 1.7438613042486395e-07 0.6073482036590576 -0.6388955116271973
v 1.7438613042486395e-07 0.36163437366485596 -0.8617522716522217
v 1.7438613042486395e-07 0.0016340852016583085 -0.8446097373962402
v 1.7438613042486395e-07 -0.32979443669319153 -0.496038019657135
v 0.14857158064842224 -0.18693695962429047 0.17253275215625763
v -0.1485712230205536 -0.18693695962429047 0.17253275215625763
v 0.2285715639591217 -0.3697940707206726 0.1782473921775818
v -0.22857122123241425 -0.3697940707206726 0.1782473921775818
v 0.2571426331996918 -0.5583658218383789 0.1782473921775818
v -0.2571429908275604 -0.5583658218383789 0.1782473921775818
v 0.2685711979866028 -0.7012225985527039 0.1496756225824356
v -0.26857155561447144 -0.7012225985527039 0.1496756225824356
v 0.24000012874603271 -0.7412229180335999 0.14396168291568756
v -0.23999978601932526 -0.7412229180335999 0.14396168291568756
v 0.13142837584018707 -0.7583654522895813 0.16681881248950958
v -0.13142871856689453 -0.7583654522895813 0.16681881248950958
v 1.7438613042486395e-07 -0.7697939872741699 0.18396131694316864
v 0.3200001120567322 -0.15265125036239624 0.1496756225824356
v -0.3199997842311859 -0.15265125036239624 0.1496756225824356
v 0.46285679936408997 -0.07836589962244034 0.15539024770259857
v -0.4628572463989258 -0.07836589962244034 0.15539024770259857
v 0.6057143807411194 0.05877693369984627 0.08681882917881012
v -0.6057140231132507 0.05877693369984627 0.08681882917881012
v 0.6285715103149414 0.26449117064476013 0.19538989663124084
v -0.6285711526870728 0.26449117064476013 0.19538989663124084
v 0.519999623298645 0.3044915199279785 0.21824702620506287
v -0.5200001001358032 0.3044915199279785 0.21824702620506287
v 0.35999977588653564 0.390205442905426 0.2639613151550293
v -0.3600001037120819 0.390205442905426 0.2639613151550293
v 0.23428550362586975 0.5044910311698914 0.29824700951576233
v -0.2342858463525772 0.5044910311698914 0.29824700951576233
v 0.11428587138652802 0.47592005133628845 0.3153902292251587
v -0.11428552120923996 0.47592005133628845 0.3153902292251587
v 0.04571445286273956 0.31020545959472656 0.30967557430267334
v -0.04571410268545151 0.31020545959472656 0.30967557430267334
v 0.11999980360269547 0.2530626058578491 0.3268187940120697
v -0.12000015377998352 0.2530626058578491 0.3268187940120697
v 0.0914287269115448 0.17306262254714966 0.32110416889190674
v -0.09142838418483734 0.17306262254714966 0.32110416889190674
v 0.14857158064842224 0.018777288496494293 0.3039616644382477
v -0.1485712230205536 0.018777288496494293 0.3039616644382477
v 0.27428585290908813 -0.03836555778980255 0.2753898799419403
v -0.2742854952812195 -0.03836555778980255 0.2753898799419403
v 0.35999977588653564 -0.004079850856214762 0.2525327503681183
v -0.3600001037120819 -0.004079850856214762 0.2525327503681183
v 0.4571429491043091 0.08734870702028275 0.23539023101329803
v -0.45714259147644043 0.08734870702028275 0.23539023101329803
v 0.4685715138912201 0.1673486977815628 0.23539023101329803
v -0.46857118606567383 0.1673486977815628 0.23539023101329803
v 0.43999966979026794 0.22449153661727905 0.24681881070137024
v -0.44000008702278137 0.22449153661727905 0.24681881070137024
v 0.3142854869365692 0.2702058255672455 0.2868184447288513
v -0.31428584456443787 0.2702058255672455 0.2868184447288513
v 0.18285728991031647 0.2930629551410675 0.3153902292251587
v -0.18285693228244781 0.2930629551410675 0.3153902292251587
v 1.7438613042486395e-07 -0.609794020652771 0.29824700951576233
v 0.08000016212463379 -0.5755082964897156 0.29824700951576233
v -0.07999981194734573 -0.5755082964897156 0.29824700951576233
v 0.08571409434080124 -0.6612229347229004 0.28110450506210327
v -0.0857144445180893 -0.6612229347229004 0.28110450506210327
v 0.04571445286273956 -0.6955086588859558 0.26967594027519226
v -0.04571410268545151 -0.6955086588859558 0.26967594027519226
v 1.7438613042486395e-07 -0.7012225985527039 0.2639613151550293
v 1.7438613042486395e-07 -0.19265159964561462 0.30967557430267334
v 1.7438613042486395e-07 -0.15265125036239624 0.3039616644382477
v 0.07428552955389023 -0.1583658903837204 0.3039616644382477
v -0.07428587228059769 -0.1583658903837204 0.3039616644382477
v 0.0914287269115448 -0.21550872921943665 0.30967557430267334
v -0.09142838418483734 -0.21550872921943665 0.30967557430267334
v 0.06285695731639862 -0.2612230181694031 0.3039616644382477
v -0.06285730749368668 -0.2612230181694031 0.3039616644382477
v 0.2914283573627472 -0.08407983928918839 0.2525327503681183
v -0.29142868518829346 -0.08407983928918839 0.2525327503681183
v 0.45142823457717896 -0.00979448389261961 0.21824702620506287
v -0.45142868161201477 -0.00979448389261961 0.21824702620506287
v 0.5314282178878784 0.09877727180719376 0.2011045217514038
v -0.5314286351203918 0.09877727180719376 0.2011045217514038
v 0.5428568124771118 0.22449153661727905 0.24110417068004608
v -0.5428572297096252 0.22449153661727905 0.24110417068004608
v 0.5028572082519531 0.2530626058578491 0.2925330698490143
v -0.5028569102287292 0.2530626058578491 0.2925330698490143
v 0.3200001120567322 0.35020580887794495 0.34396129846572876
v -0.3199997842311859 0.35020580887794495 0.34396129846572876
v 0.2285715639591217 0.4187772274017334 0.37253308296203613
v -0.22857122123241425 0.4187772274017334 0.37253308296203613
v 0.14857158064842224 0.40163400769233704 0.38396164774894714
v -0.1485712230205536 0.40163400769233704 0.38396164774894714
v 0.07428552955389023 0.26449117064476013 0.3782469928264618
v -0.07428587228059769 0.26449117064476013 0.3782469928264618
v 0.0914287269115448 -0.12408018112182617 0.35538986325263977
v -0.09142838418483734 -0.12408018112182617 0.35538986325263977
v 0.1542855203151703 -0.37550869584083557 0.28110450506210327
v -0.15428586304187775 -0.37550869584083557 0.28110450506210327
v 0.18285728991031647 -0.564079761505127 0.2639613151550293
v -0.18285693228244781 -0.564079761505127 0.2639613151550293
v 0.19428585469722748 -0.6497943997383118 0.24681881070137024
v -0.19428551197052002 -0.6497943997383118 0.24681881070137024
v 0.17142871022224426 -0.7183657884597778 0.22396166622638702
v -0.1714283674955368 -0.7183657884597778 0.22396166622638702
v 0.11999980360269547 -0.7297943830490112 0.22396166622638702
v -0.12000015377998352 -0.7297943830490112 0.22396166622638702
v 1.7438613042486395e-07 -0.7412229180335999 0.22967560589313507
v 1.7438613042486395e-07 -0.015508419834077358 0.2925330698490143
v 1.7438613042486395e-07 0.1044912114739418 0.32110416889190674
v 0.24000012874603271 0.29877689480781555 0.3039616644382477
v -0.23999978601932526 0.29877689480781555 0.3039616644382477
v 0.11999980360269547 0.05306299775838852 0.30967557430267334
v -0.12000015377998352 0.05306299775838852 0.30967557430267334
v 0.09714266657829285 0.1044912114739418 0.3153902292251587
v -0.0971430167555809 0.1044912114739418 0.3153902292251587
v 0.08571409434080124 -0.5526511669158936 0.29824700951576233
v -0.0857144445180893 -0.5526511669158936 0.29824700951576233
v 0.05714302137494087 -0.37550869584083557 0.30967557430267334
v -0.05714267119765282 -0.37550869584083557 0.30967557430267334
v 1.7438613042486395e-07 -0.37550869584083557 0.30967557430267334
v 1.7438613042486395e-07 -0.28979408740997314 0.3039616644382477
v 0.06857158988714218 -0.24979443848133087 0.33253273367881775
v -0.06857123970985413 -0.24979443848133087 0.33253273367881775
v 0.09714266657829285 -0.21550872921943665 0.34396129846572876
v -0.0971430167555809 -0.21550872921943665 0.34396129846572876
v 0.08000016212463379 -0.1469373106956482 0.33253273367881775
v -0.07999981194734573 -0.1469373106956482 0.33253273367881775
v 0.028571249917149544 -0.14122268557548523 0.33253273367881775
v -0.02857159823179245 -0.14122268557548523 0.33253273367881775
v 1.7438613042486395e-07 -0.19836552441120148 0.3668184280395508
v 0.034285884350538254 -0.1583658903837204 0.35538986325263977
v -0.0342855341732502 -0.1583658903837204 0.35538986325263977
v 0.06857158988714218 -0.16407983005046844 0.35538986325263977
v -0.06857123970985413 -0.16407983005046844 0.35538986325263977
v 0.08000016212463379 -0.21550872921943665 0.3668184280395508
v -0.07999981194734573 -0.21550872921943665 0.3668184280395508
v 0.05714302137494087 -0.2326512336730957 0.3496759235858917
v -0.05714267119765282 -0.2326512336730957 0.3496759235858917
v 1.7438613042486395e-07 -0.2612230181694031 0.3496759235858917
v 0.18857121467590332 -0.27836552262306213 0.16681881248950958
v -0.18857157230377197 -0.27836552262306213 0.16681881248950958
v 0.11999980360269547 -0.22693730890750885 0.28110450506210327
v -0.12000015377998352 -0.22693730890750885 0.28110450506210327
v 0.13142837584018707 -0.27836552262306213 0.28110450506210327
v -0.13142871856689453 -0.27836552262306213 0.28110450506210327
v 0.17142871022224426 -0.2326512336730957 0.16681881248950958
v -0.1714283674955368 -0.2326512336730957 0.16681881248950958
v 1.7438613042486395e-07 -0.6897940039634705 0.2639613151550293
v 0.034285884350538254 -0.6840800642967224 0.2639613151550293
v -0.0342855341732502 -0.6840800642967224 0.2639613151550293
v 0.06857158988714218 -0.6497943997383118 0.28110450506210327
v -0.06857123970985413 -0.6497943997383118 0.28110450506210327
v 0.06857158988714218 -0.5926515460014343 0.2925330698490143
v -0.06857123970985413 -0.5926515460014343 0.2925330698490143
v 1.7438613042486395e-07 -0.6212226152420044 0.24110417068004608
v 0.06857158988714218 -0.5983654856681824 0.24681881070137024
v -0.06857123970985413 -0.5983654856681824 0.24681881070137024
v 0.06857158988714218 -0.6440797448158264 0.22967560589313507
v -0.06857123970985413 -0.6440797448158264 0.22967560589313507
v 0.034285884350538254 -0.6726515293121338 0.22396166622638702
v -0.0342855341732502 -0.6726515293121338 0.22396166622638702
v 1.7438613042486395e-07 -0.6783654689788818 0.22396166622638702
v 0.12571443617343903 0.11020584404468536 0.33253273367881775
v -0.12571409344673157 0.11020584404468536 0.33253273367881775
v 0.13714300096035004 0.06449156254529953 0.3268187940120697
v -0.13714265823364258 0.06449156254529953 0.3268187940120697
v 0.24571406841278076 0.26449117064476013 0.3153902292251587
v -0.24571441113948822 0.26449117064476013 0.3153902292251587
v 0.19999979436397552 0.2587772607803345 0.3268187940120697
v -0.20000013709068298 0.2587772607803345 0.3268187940120697
v 0.30857154726982117 0.2416340410709381 0.3268187940120697
v -0.3085711896419525 0.2416340410709381 0.3268187940120697
v 0.41142866015434265 0.20734833180904388 0.26967594027519226
v -0.4114283323287964 0.20734833180904388 0.26967594027519226
v 0.42857110500335693 0.16163405776023865 0.2639613151550293
v -0.42857152223587036 0.16163405776023865 0.2639613151550293
v 0.42285725474357605 0.0930626392364502 0.25824737548828125
v -0.4228568971157074 0.0930626392364502 0.25824737548828125
v 0.34857118129730225 0.02449122443795204 0.2868184447288513
v -0.3485715389251709 0.02449122443795204 0.2868184447288513
v 0.27428585290908813 -0.004079850856214762 0.3039616644382477
v -0.2742854952812195 -0.004079850856214762 0.3039616644382477
v 0.1657140851020813 0.030205857008695602 0.33253273367881775
v -0.16571442782878876 0.030205857008695602 0.33253273367881775
v 0.13142837584018707 0.1673486977815628 0.33253273367881775
v -0.13142871856689453 0.1673486977815628 0.33253273367881775
v 0.1542855203151703 0.22449153661727905 0.33253273367881775
v -0.15428586304187775 0.22449153661727905 0.33253273367881775
v 0.17142871022224426 0.21306297183036804 0.3153902292251587
v -0.1714283674955368 0.21306297183036804 0.3153902292251587
v 0.14285694062709808 0.1673486977815628 0.3153902292251587
v -0.14285729825496674 0.1673486977815628 0.3153902292251587
v 0.1771426498889923 0.04163442552089691 0.3153902292251587
v -0.17714300751686096 0.04163442552089691 0.3153902292251587
v 0.27428585290908813 0.013062654994428158 0.2925330698490143
v -0.2742854952812195 0.013062654994428158 0.2925330698490143
v 0.33714261651039124 0.03591979295015335 0.2753898799419403
v -0.3371429741382599 0.03591979295015335 0.2753898799419403
v 0.40000009536743164 0.1044912114739418 0.2525327503681183
v -0.3999997675418854 0.1044912114739418 0.2525327503681183
v 0.4057139456272125 0.1559201180934906 0.2525327503681183
v -0.40571439266204834 0.1559201180934906 0.2525327503681183
v 0.38857153058052063 0.19591976702213287 0.25824737548828125
v -0.388571172952652 0.19591976702213287 0.25824737548828125
v 0.3028569221496582 0.23592010140419006 0.30967557430267334
v -0.30285724997520447 0.23592010140419006 0.30967557430267334
v 0.2057144194841385 0.2416340410709381 0.32110416889190674
v -0.20571407675743103 0.2416340410709381 0.32110416889190674
v 0.24571406841278076 0.24734868109226227 0.30967557430267334
v -0.24571441113948822 0.24734868109226227 0.30967557430267334
v 0.14857158064842224 0.07592013478279114 0.30967557430267334
v -0.1485712230205536 0.07592013478279114 0.30967557430267334
v 0.14285694062709808 0.11591977626085281 0.30967557430267334
v -0.14285729825496674 0.11591977626085281 0.30967557430267334
v 0.08000016212463379 0.28734833002090454 0.20681846141815186
v -0.07999981194734573 0.28734833002090454 0.20681846141815186
v 0.14285694062709808 0.43591973185539246 0.212533101439476
v -0.14285729825496674 0.43591973185539246 0.212533101439476
v 0.24571406841278076 0.45306292176246643 0.19538989663124084
v -0.24571441113948822 0.45306292176246643 0.19538989663124084
v 0.3542858362197876 0.355919748544693 0.16681881248950958
v -0.35428547859191895 0.355919748544693 0.16681881248950958
v 0.4971425235271454 0.2816343903541565 0.12110453844070435
v -0.4971429407596588 0.2816343903541565 0.12110453844070435
v 0.5828571915626526 0.24734868109226227 0.09824740141630173
v -0.5828568935394287 0.24734868109226227 0.09824740141630173
v 0.5657139420509338 0.07020550221204758 0.03538992255926132
v -0.5657143592834473 0.07020550221204758 0.03538992255926132
v 0.43999966979026794 -0.04979413002729416 0.0639616921544075
v -0.44000008702278137 -0.04979413002729416 0.0639616921544075
v 0.3200001120567322 -0.11836554855108261 0.10396134108304977
v -0.3199997842311859 -0.11836554855108261 0.10396134108304977
v 1.7438613042486395e-07 0.6073482036590576 -0.02746686153113842
v 1.7438613042486395e-07 0.67020583152771 -0.29603859782218933
v 1.7438613042486395e-07 -0.19265159964561462 -0.7303240299224854
v 1.7438613042486395e-07 -0.38693729043006897 -0.10175291448831558
v 1.7438613042486395e-07 -0.7640800476074219 0.09824740141630173
v 1.7438613042486395e-07 -0.6383658051490784 0.01253278274089098
v 1.7438613042486395e-07 -0.46693727374076843 -0.00460972310975194
v 1.7438613042486395e-07 -0.404079794883728 -0.03318149596452713
v 0.6228567957878113 0.12163441628217697 -0.1988954097032547
v -0.6228572130203247 0.12163441628217697 -0.1988954097032547
v 0.6285715103149414 0.18449120223522186 -0.2731814682483673
v -0.6285711526870728 0.18449120223522186 -0.2731814682483673
v 0.5657139420509338 0.1444915533065796 -0.5588955283164978
v -0.5657143592834473 0.1444915533065796 -0.5588955283164978
v 0.33714261651039124 0.2702058255672455 -0.7531812191009521
v -0.3371429741382599 0.2702058255672455 -0.7531812191009521
v 0.5371429324150085 -0.08407983928918839 -0.1874668300151825
v -0.5371425747871399 -0.08407983928918839 -0.1874668300151825
v 0.43428581953048706 -0.14122268557548523 -0.3588952124118805
v -0.4342854619026184 -0.14122268557548523 -0.3588952124118805
v 0.4685715138912201 -0.05550876259803772 -0.5531808733940125
v -0.46857118606567383 -0.05550876259803772 -0.5531808733940125
v 0.24571406841278076 -0.00979448389261961 -0.7246094346046448
v -0.24571441113948822 -0.00979448389261961 -0.7246094346046448
v 0.17142871022224426 -0.3069372773170471 0.05824705958366394
v -0.1714283674955368 -0.3069372773170471 0.05824705958366394
v 0.13142837584018707 -0.35265156626701355 -0.05032400041818619
v -0.13142871856689453 -0.35265156626701355 -0.05032400041818619
v 0.21142835915088654 -0.5697943568229675 0.04110455513000488
v -0.211428701877594 -0.5697943568229675 0.04110455513000488
v 0.18285728991031647 -0.41550835967063904 0.04681849107146263
v -0.18285693228244781 -0.41550835967063904 0.04681849107146263
v 0.24000012874603271 -0.7183657884597778 0.05253312364220619
v -0.23999978601932526 -0.7183657884597778 0.05253312364220619
v 0.10285729914903641 -0.604080080986023 0.029675984755158424
v -0.10285694897174835 -0.604080080986023 0.029675984755158424
v 0.0914287269115448 -0.444080114364624 0.023961352184414864
v -0.09142838418483734 -0.444080114364624 0.023961352184414864
v 0.11999980360269547 -0.7412229180335999 0.08110419660806656
v -0.12000015377998352 -0.7412229180335999 0.08110419660806656
v 0.16000014543533325 -0.2555083930492401 0.07539026439189911
v -0.1599998027086258 -0.2555083930492401 0.07539026439189911
v 0.1542855203151703 -0.21550872921943665 0.10396134108304977
v -0.15428586304187775 -0.21550872921943665 0.10396134108304977
v 0.14857158064842224 -0.17550839483737946 0.1268184781074524
v -0.1485712230205536 -0.17550839483737946 0.1268184781074524
v 0.1542855203151703 -0.3355083763599396 -0.11889541894197464
v -0.15428586304187775 -0.3355083763599396 -0.11889541894197464
v 0.2171429991722107 -0.27836552262306213 -0.4331812560558319
v -0.21714264154434204 -0.27836552262306213 -0.4331812560558319
v 0.2514286935329437 -0.1583658903837204 -0.6331808567047119
v -0.25142836570739746 -0.1583658903837204 -0.6331808567047119
v 0.3314286768436432 0.5844910144805908 -0.518895149230957
v -0.3314283490180969 0.5844910144805908 -0.518895149230957
v 0.3314286768436432 0.6302053332328796 -0.29032397270202637
v -0.3314283490180969 0.6302053332328796 -0.29032397270202637
v 0.3314286768436432 0.5730624794960022 -0.06746720522642136
v -0.3314283490180969 0.5730624794960022 -0.06746720522642136
v 0.33714261651039124 0.3330625891685486 0.07539026439189911
v -0.3371429741382599 0.3330625891685486 0.07539026439189911
v 0.5314282178878784 0.24734868109226227 0.006818846333771944
v -0.5314286351203918 0.24734868109226227 0.006818846333771944
v 0.46285679936408997 0.2816343903541565 -0.03318149596452713
v -0.4628572463989258 0.2816343903541565 -0.03318149596452713
v 0.4685715138912201 0.46449148654937744 -0.1988954097032547
v -0.46857118606567383 0.46449148654937744 -0.1988954097032547
v 0.5828571915626526 0.36163437366485596 -0.14746719598770142
v -0.5828568935394287 0.36163437366485596 -0.14746719598770142
v 0.5828571915626526 0.40163400769233704 -0.3246094882488251
v -0.5828568935394287 0.40163400769233704 -0.3246094882488251
v 0.4685715138912201 0.4987773001194 -0.3817523419857025
v -0.46857118606567383 0.4987773001194 -0.3817523419857025
v 0.4685715138912201 0.44734829664230347 -0.5646094679832458
v -0.46857118606567383 0.44734829664230347 -0.5646094679832458
v 0.5828571915626526 0.3444911539554596 -0.5017526745796204
v -0.5828568935394287 0.3444911539554596 -0.5017526745796204
v 0.45142823457717896 0.19020582735538483 -0.6674665808677673
v -0.45142868161201477 0.19020582735538483 -0.6674665808677673
v 0.3542858362197876 -0.0326516218483448 -0.6388955116271973
v -0.35428547859191895 -0.0326516218483448 -0.6388955116271973
v 0.5999996066093445 0.19020582735538483 -0.3874669671058655
v -0.6000000834465027 0.19020582735538483 -0.3874669671058655
v 0.29714298248291016 -0.17550839483737946 -0.13032399117946625
v -0.2971426248550415 -0.17550839483737946 -0.13032399117946625
v 0.3142854869365692 -0.19265159964561462 -0.3931809067726135
v -0.31428584456443787 -0.19265159964561462 -0.3931809067726135
v 0.6514286398887634 0.24734868109226227 -0.4103241264820099
v -0.6514282822608948 0.24734868109226227 -0.4103241264820099
v 0.5657139420509338 -0.15265125036239624 -0.33032411336898804
v -0.5657143592834473 -0.15265125036239624 -0.33032411336898804
v 0.7599996328353882 -0.12408018112182617 -0.47889551520347595
v -0.7600000500679016 -0.12408018112182617 -0.47889551520347595
v 0.9371428489685059 -0.00979448389261961 -0.5531808733940125
v -0.9371424913406372 -0.00979448389261961 -0.5531808733940125
v 0.9885709881782532 0.18449120223522186 -0.5474669337272644
v -0.9885714054107666 0.18449120223522186 -0.5474669337272644
v 0.9028571844100952 0.3216340243816376 -0.5474669337272644
v -0.9028568267822266 0.3216340243816376 -0.5474669337272644
v 0.7485710382461548 0.29877689480781555 -0.46746695041656494
v -0.7485714554786682 0.29877689480781555 -0.46746695041656494
v 0.7428571581840515 0.2530626058578491 -0.45032376050949097
v -0.7428568601608276 0.2530626058578491 -0.45032376050949097
v 0.8685714602470398 0.2702058255672455 -0.5246098041534424
v -0.8685711026191711 0.2702058255672455 -0.5246098041534424
v 0.9257143139839172 0.16163405776023865 -0.5360383987426758
v -0.9257139563560486 0.16163405776023865 -0.5360383987426758
v 0.8857138752937317 0.007348718587309122 -0.5360383987426758
v -0.8857142925262451 0.007348718587309122 -0.5360383987426758
v 0.7542857527732849 -0.07836589962244034 -0.461752325296402
v -0.7542853951454163 -0.07836589962244034 -0.461752325296402
v 0.6057143807411194 -0.10122303664684296 -0.3360380530357361
v -0.6057140231132507 -0.10122303664684296 -0.3360380530357361
v 0.6742857694625854 0.21306297183036804 -0.3988955318927765
v -0.6742854118347168 0.21306297183036804 -0.3988955318927765
v 0.6914281845092773 0.17306262254714966 -0.45032376050949097
v -0.6914286017417908 0.17306262254714966 -0.45032376050949097
v 0.6457139253616333 -0.06693733483552933 -0.3931809067726135
v -0.6457143425941467 -0.06693733483552933 -0.3931809067726135
v 0.7599996328353882 -0.04979413002729416 -0.5074666142463684
v -0.7600000500679016 -0.04979413002729416 -0.5074666142463684
v 0.8685714602470398 0.018777288496494293 -0.5646094679832458
v -0.8685711026191711 0.018777288496494293 -0.5646094679832458
v 0.9028571844100952 0.13306298851966858 -0.5646094679832458
v -0.9028568267822266 0.13306298851966858 -0.5646094679832458
v 0.8571428656578064 0.21306297183036804 -0.5588955283164978
v -0.8571425080299377 0.21306297183036804 -0.5588955283164978
v 0.7485710382461548 0.20163439214229584 -0.5017526745796204
v -0.7485714554786682 0.20163439214229584 -0.5017526745796204
v 0.617142915725708 0.16163405776023865 -0.3931809067726135
v -0.6171425580978394 0.16163405776023865 -0.3931809067726135
v 0.6114282011985779 0.07592013478279114 -0.43889519572257996
v -0.6114286184310913 0.07592013478279114 -0.43889519572257996
v 0.5542853474617004 0.018777288496494293 -0.43889519572257996
v -0.5542857646942139 0.018777288496494293 -0.43889519572257996
v 0.5999996066093445 0.013062654994428158 -0.43889519572257996
v -0.6000000834465027 0.013062654994428158 -0.43889519572257996
v 0.617142915725708 -0.03836555778980255 -0.43889519572257996
v -0.6171425580978394 -0.03836555778980255 -0.43889519572257996
v 0.594285786151886 -0.06122269853949547 -0.43889519572257996
v -0.5942854285240173 -0.06122269853949547 -0.43889519572257996
v 0.5314282178878784 -0.04979413002729416 -0.29032397270202637
v -0.5314286351203918 -0.04979413002729416 -0.29032397270202637
v 0.5257143974304199 -0.06693733483552933 -0.36460983753204346
v -0.5257140398025513 -0.06693733483552933 -0.36460983753204346
v 0.5257143974304199 -0.021223053336143494 -0.37603840231895447
v -0.5257140398025513 -0.021223053336143494 -0.37603840231895447
v 0.5828571915626526 0.09877727180719376 -0.3931809067726135
v -0.5828568935394287 0.09877727180719376 -0.3931809067726135
v 0.6514286398887634 0.12734834849834442 -0.4331812560558319
v -0.6514282822608948 0.12734834849834442 -0.4331812560558319
v 0.6514286398887634 0.12163441628217697 -0.473180890083313
v -0.6514282822608948 0.12163441628217697 -0.473180890083313
v 0.594285786151886 -0.06122269853949547 -0.473180890083313
v -0.5942854285240173 -0.06122269853949547 -0.473180890083313
v 0.6228567957878113 -0.03836555778980255 -0.473180890083313
v -0.6228572130203247 -0.03836555778980255 -0.473180890083313
v 0.6057143807411194 0.007348718587309122 -0.473180890083313
v -0.6057140231132507 0.007348718587309122 -0.473180890083313
v 0.5600000619888306 0.018777288496494293 -0.473180890083313
v -0.5599997043609619 0.018777288496494293 -0.473180890083313
v 0.617142915725708 0.07592013478279114 -0.473180890083313
v -0.6171425580978394 0.07592013478279114 -0.473180890083313
v 0.7599996328353882 0.19020582735538483 -0.5417523384094238
v -0.7600000500679016 0.19020582735538483 -0.5417523384094238
v 0.8685714602470398 0.20163439214229584 -0.5931812524795532
v -0.8685711026191711 0.20163439214229584 -0.5931812524795532
v 0.9199995994567871 0.12734834849834442 -0.5988951325416565
v -0.9200000166893005 0.12734834849834442 -0.5988951325416565
v 0.8857138752937317 0.013062654994428158 -0.5931812524795532
v -0.8857142925262451 0.013062654994428158 -0.5931812524795532
v 0.7657143473625183 -0.04979413002729416 -0.5474669337272644
v -0.7657139897346497 -0.04979413002729416 -0.5474669337272644
v 0.6457139253616333 -0.06122269853949547 -0.4331812560558319
v -0.6457143425941467 -0.06122269853949547 -0.4331812560558319
v 0.6971428990364075 0.16163405776023865 -0.49032410979270935
v -0.6971425414085388 0.16163405776023865 -0.49032410979270935
v 0.6514286398887634 0.030205857008695602 -0.47889551520347595
v -0.6514282822608948 0.030205857008695602 -0.47889551520347595
v 0.6857143640518188 -0.004079850856214762 -0.484609454870224
v -0.6857140064239502 -0.004079850856214762 -0.484609454870224
v 0.7314286231994629 0.04163442552089691 -0.5074666142463684
v -0.7314282655715942 0.04163442552089691 -0.5074666142463684
v 0.7028567790985107 0.07592013478279114 -0.496038019657135
v -0.7028571963310242 0.07592013478279114 -0.496038019657135
v 0.7428571581840515 0.12163441628217697 -0.513181209564209
v -0.7428568601608276 0.12163441628217697 -0.513181209564209
v 0.7714281678199768 0.08734870702028275 -0.518895149230957
v -0.7714285850524902 0.08734870702028275 -0.518895149230957
v 0.8114286065101624 0.1044912114739418 -0.5246098041534424
v -0.8114282488822937 0.1044912114739418 -0.5246098041534424
v 0.7942852973937988 0.15020549297332764 -0.5246098041534424
v -0.794285774230957 0.15020549297332764 -0.5246098041534424
v 0.7485710382461548 0.2702058255672455 -0.5931812524795532
v -0.7485714554786682 0.2702058255672455 -0.5931812524795532
v 0.9142857193946838 0.2930629551410675 -0.6388955116271973
v -0.9142853617668152 0.2930629551410675 -0.6388955116271973
v 0.9999995827674866 0.1673486977815628 -0.6046097874641418
v -1.0 0.1673486977815628 -0.6046097874641418
v 0.9599999785423279 -0.00979448389261961 -0.6274669170379639
v -0.959999680519104 -0.00979448389261961 -0.6274669170379639
v 0.7599996328353882 -0.11265160888433456 -0.5988951325416565
v -0.7600000500679016 -0.11265160888433456 -0.5988951325416565
v 0.5771424770355225 -0.14122268557548523 -0.47889551520347595
v -0.5771429538726807 -0.14122268557548523 -0.47889551520347595
v 0.6285715103149414 0.2302054762840271 -0.518895149230957
v -0.6285711526870728 0.2302054762840271 -0.518895149230957
f 1 3 45
f 2 48 46
f 3 5 43
f 4 46 44
f 9 7 5
f 10 4 6
f 11 9 3
f 12 2 4
f 13 15 9
f 14 12 10
f 15 17 7
f 16 10 8
f 21 19 17
f 22 16 18
f 23 21 15
f 24 14 16
f 25 27 21
f 26 24 22
f 27 29 19
f 28 22 20
f 33 31 29
f 34 28 30
f 35 33 27
f 36 26 28
f 37 39 33
f 38 36 34
f 39 41 31
f 40 34 32
f 45 43 41
f 46 40 42
f 47 45 39
f 48 38 40
f 37 51 49
f 38 48 50
f 35 53 51
f 36 38 52
f 25 55 53
f 26 36 54
f 23 57 55
f 24 26 56
f 13 59 57
f 14 24 58
f 11 63 59
f 12 14 60
f 1 65 63
f 2 12 64
f 47 49 65
f 48 2 66
f 65 49 61
f 66 62 50
f 65 61 63
f 66 64 62
f 59 63 61
f 60 62 64
f 57 59 61
f 58 62 60
f 55 57 61
f 56 62 58
f 53 55 61
f 54 62 56
f 51 53 61
f 52 62 54
f 49 51 61
f 50 62 52
f 174 176 91
f 175 90 91
f 172 174 89
f 173 88 90
f 170 172 87
f 171 86 88
f 168 170 85
f 169 84 86
f 166 168 83
f 167 82 84
f 92 146 164
f 93 80 165
f 94 148 146
f 95 93 147
f 96 150 148
f 97 95 149
f 98 152 150
f 99 97 151
f 100 154 152
f 101 99 153
f 102 156 154
f 103 101 155
f 104 158 156
f 105 103 157
f 106 160 158
f 107 105 159
f 108 162 160
f 109 107 161
f 67 68 162
f 67 109 163
f 128 160 162
f 129 111 163
f 179 158 160
f 180 129 161
f 156 158 179
f 157 127 180
f 154 156 126
f 155 125 127
f 152 154 124
f 153 123 125
f 150 152 122
f 151 121 123
f 148 150 120
f 149 119 121
f 146 148 118
f 147 117 119
f 164 146 116
f 165 115 117
f 181 177 164
f 182 115 165
f 162 68 112
f 163 111 113
f 68 178 183
f 68 113 184
f 181 183 178
f 182 177 178
f 137 176 174
f 137 136 175
f 135 174 172
f 136 134 173
f 133 172 170
f 134 132 171
f 187 185 168
f 188 167 169
f 170 168 185
f 171 132 186
f 190 189 187
f 190 145 188
f 187 189 69
f 188 186 69
f 131 185 69
f 132 130 69
f 193 191 144
f 194 143 145
f 195 193 142
f 196 141 143
f 197 195 140
f 198 139 141
f 71 197 139
f 71 138 139
f 144 191 70
f 145 190 70
f 191 206 208
f 192 70 208
f 199 200 197
f 199 71 198
f 200 202 195
f 201 198 196
f 202 204 193
f 203 196 194
f 204 206 191
f 205 194 192
f 204 202 200
f 205 199 201
f 208 206 204
f 208 199 205
f 140 164 177
f 141 139 177
f 142 211 164
f 143 141 165
f 144 213 211
f 145 143 212
f 187 166 213
f 188 145 214
f 209 213 166
f 210 82 167
f 215 211 213
f 216 210 214
f 164 211 215
f 165 80 216
f 130 72 222
f 130 132 223
f 131 222 220
f 132 134 221
f 133 220 218
f 134 136 219
f 135 218 217
f 136 137 217
f 218 229 231
f 219 217 231
f 220 227 229
f 221 219 230
f 222 225 227
f 223 221 228
f 72 224 225
f 72 223 226
f 231 229 225
f 231 224 226
f 229 227 225
f 230 226 228
f 181 234 232
f 182 184 233
f 183 232 254
f 184 113 255
f 112 254 256
f 113 111 257
f 114 252 234
f 115 182 235
f 116 250 252
f 117 115 253
f 118 248 250
f 119 117 251
f 120 246 248
f 121 119 249
f 122 244 246
f 123 121 247
f 124 242 244
f 125 123 245
f 126 240 242
f 127 125 243
f 179 236 240
f 180 127 241
f 128 238 236
f 129 180 237
f 110 256 238
f 111 129 239
f 256 258 276
f 257 239 277
f 238 276 278
f 239 237 279
f 236 278 274
f 237 241 275
f 240 274 272
f 241 243 273
f 242 272 270
f 243 245 271
f 244 270 268
f 245 247 269
f 246 268 266
f 247 249 267
f 248 266 264
f 249 251 265
f 250 264 262
f 251 253 263
f 252 262 280
f 253 235 281
f 254 260 258
f 255 257 259
f 232 282 260
f 233 255 261
f 234 280 282
f 235 233 283
f 108 284 73
f 109 67 73
f 106 286 284
f 107 109 285
f 104 288 286
f 105 107 287
f 102 290 288
f 103 105 289
f 100 292 290
f 101 103 291
f 98 294 292
f 99 101 293
f 96 296 294
f 97 99 295
f 94 298 296
f 95 97 297
f 92 300 298
f 93 95 299
f 309 328 338
f 309 308 339
f 308 338 336
f 308 307 337
f 307 336 340
f 307 306 341
f 91 306 340
f 91 90 341
f 89 340 334
f 90 88 335
f 87 334 330
f 88 86 331
f 85 330 332
f 86 84 333
f 336 338 332
f 337 331 333
f 334 340 336
f 335 331 337
f 332 338 328
f 333 327 329
f 83 332 326
f 84 82 327
f 342 344 215
f 343 210 216
f 326 342 209
f 327 82 210
f 215 344 346
f 216 80 347
f 346 300 92
f 347 80 93
f 324 352 304
f 325 77 304
f 352 350 78
f 353 304 78
f 350 348 305
f 351 78 305
f 348 328 309
f 349 305 309
f 328 348 342
f 329 327 343
f 298 318 310
f 299 297 311
f 316 324 77
f 317 76 77
f 358 356 303
f 359 302 303
f 356 354 75
f 357 303 75
f 354 316 76
f 355 75 76
f 294 362 364
f 295 293 365
f 362 368 366
f 363 365 367
f 368 370 372
f 369 367 373
f 370 376 374
f 371 373 375
f 378 374 376
f 379 315 377
f 354 374 378
f 355 317 379
f 356 372 374
f 357 355 375
f 358 366 372
f 359 357 373
f 360 364 366
f 361 359 367
f 292 364 360
f 293 291 361
f 360 358 302
f 361 74 302
f 286 288 290
f 287 285 291
f 290 360 74
f 291 285 74
f 284 74 73
f 285 73 74
f 296 310 362
f 297 295 363
f 312 368 362
f 313 311 363
f 382 370 368
f 383 313 369
f 376 370 382
f 377 315 383
f 350 386 384
f 351 349 385
f 384 386 320
f 385 319 321
f 300 384 318
f 301 299 319
f 344 342 384
f 345 301 385
f 348 384 342
f 349 343 385
f 346 344 300
f 347 301 345
f 322 380 378
f 323 315 379
f 378 380 324
f 379 317 325
f 386 380 322
f 387 321 323
f 352 380 386
f 353 351 387
f 380 352 324
f 381 325 353
f 388 414 402
f 389 401 403
f 402 404 398
f 403 401 399
f 404 406 396
f 405 399 397
f 406 408 394
f 407 397 395
f 408 410 392
f 409 395 393
f 410 412 390
f 411 393 391
f 420 418 412
f 421 411 413
f 422 420 410
f 423 409 411
f 424 422 408
f 425 407 409
f 426 424 406
f 427 405 407
f 428 426 404
f 429 403 405
f 414 416 428
f 415 403 429
f 320 444 442
f 321 319 443
f 390 412 444
f 391 321 445
f 318 442 312
f 319 311 313
f 430 414 388
f 431 383 389
f 418 440 444
f 419 413 445
f 446 444 440
f 447 439 441
f 446 438 436
f 447 435 437
f 448 446 434
f 449 433 435
f 448 432 450
f 449 431 451
f 430 450 416
f 431 415 417
f 448 430 382
f 449 313 383
f 442 446 448
f 443 313 449
f 444 446 442
f 445 443 447
f 450 452 476
f 451 417 477
f 432 462 452
f 433 451 453
f 434 460 462
f 435 433 463
f 436 458 460
f 437 435 461
f 438 456 458
f 439 437 459
f 440 454 456
f 441 439 457
f 418 474 454
f 419 441 455
f 416 476 464
f 417 429 465
f 428 464 466
f 429 427 467
f 426 466 468
f 427 425 469
f 424 468 470
f 425 423 471
f 422 470 472
f 423 421 473
f 420 472 474
f 421 419 475
f 456 480 478
f 457 459 479
f 480 482 484
f 481 479 485
f 482 488 486
f 483 485 487
f 488 490 492
f 489 487 493
f 476 486 492
f 477 465 493
f 484 486 476
f 485 453 477
f 462 478 484
f 463 453 485
f 478 462 460
f 479 459 461
f 474 480 456
f 475 455 457
f 482 480 474
f 483 473 475
f 488 482 472
f 489 471 473
f 490 488 470
f 491 469 471
f 492 490 468
f 493 467 469
f 492 466 464
f 493 465 467
f 390 504 502
f 391 393 503
f 392 502 500
f 393 395 501
f 394 500 498
f 395 397 499
f 396 498 496
f 397 399 497
f 398 496 494
f 399 401 495
f 400 494 506
f 401 389 507
f 502 504 506
f 503 495 507
f 496 500 502
f 497 495 503
f 498 500 496
f 499 497 501
f 382 388 506
f 383 315 507
f 506 504 322
f 507 315 323
f 322 504 390
f 323 321 391
