v -0.8538698554039001 0.21553778648376465 0.0
v -0.8341850638389587 0.27459225058555603 0.0
v -0.7997366189956665 0.31888309121131897 0.0
v -0.7505245804786682 0.34841033816337585 0.0
v -0.6963912844657898 0.373016357421875 0.0
v -0.6324155926704407 0.38777998089790344 0.0
v -0.5684399604797363 0.4025436043739319 0.0
v -0.4946218729019165 0.40746480226516724 0.0
v -0.4208037853240967 0.4123860001564026 0.0
v -0.3420644998550415 0.4123860001564026 0.0
v -0.3026948571205139 0.4517556428909302 0.0
v -0.33714327216148376 0.4960465133190155 0.0
v -0.3617493212223053 0.5501797795295715 0.0
v -0.371591717004776 0.619076669216156 0.0
v -0.371591717004776 0.6879734992980957 0.0
v -0.35682809352874756 0.7519491910934448 0.0
v -0.33714327216148376 0.8110036849975586 0.0
v -0.30761605501174927 0.8602157235145569 0.0
v -0.2682464122772217 0.8995853662490845 0.0
v -0.22395555675029755 0.9340338110923767 0.0
v -0.16982229053974152 0.9586398005485535 0.0
v -0.11076782643795013 0.9783246517181396 0.0
v -0.04187094792723656 0.9881670475006104 0.0
v 0.02702593058347702 0.9783246517181396 0.0
v 0.09100160747766495 0.9635610580444336 0.0
v 0.14021365344524384 0.9340338110923767 0.0
v 0.18942572176456451 0.9045065641403198 0.0
v 0.22387415170669556 0.8602157235145569 0.0
v 0.25340139865875244 0.8110036849975586 0.0
v 0.27308622002601624 0.7519491910934448 0.0
v 0.28292861580848694 0.6830523014068604 0.0
v 0.28292861580848694 0.6141554117202759 0.0
v 0.27308622002601624 0.5452585816383362 0.0
v 0.25340139865875244 0.4862040877342224 0.0
v 0.2287953644990921 0.4320708215236664 0.0
v 0.2878498136997223 0.4123860001564026 0.0
v 0.3616679012775421 0.40746480226516724 0.0
v 0.43548598885536194 0.4123860001564026 0.0
v 0.5142253041267395 0.4123860001564026 0.0
v 0.5880433917045593 0.40746480226516724 0.0
v 0.6470978260040283 0.38777998089790344 0.0
v 0.7110735177993774 0.373016357421875 0.0
v 0.7602855563163757 0.3434891402721405 0.0
v 0.8045763969421387 0.30904069542884827 0.0
v 0.8390248417854309 0.26474982500076294 0.0
v 0.8587096929550171 0.20569537580013275 0.0
v 0.8488672375679016 0.13679848611354828 0.0
v 0.8144188523292542 0.09250763803720474 0.0
v 0.7652067542076111 0.06298040598630905 0.0
v 0.7061523199081421 0.04329558461904526 0.0
v 0.6323342323303223 0.03837437927722931 0.0
v 0.5535949468612671 0.03837437927722931 0.0
v 0.47977685928344727 0.03345317393541336 0.0
v 0.41580116748809814 0.018689557909965515 0.0
v 0.38627395033836365 -0.03052249737083912 0.0
v 0.391195148229599 -0.1043405830860138 0.0
v 0.39611634612083435 -0.17815867066383362 0.0
v 0.40595877170562744 -0.2470555454492569 0.0
v 0.41580116748809814 -0.3159524202346802 0.0
v 0.4305647909641266 -0.3799280822277069 0.0
v 0.44532841444015503 -0.44390377402305603 0.0
v 0.46009203791618347 -0.5078794360160828 0.0
v 0.47977685928344727 -0.5669339299201965 0.0
v 0.49946168065071106 -0.6259883642196655 0.0
v 0.5191465020179749 -0.6850428581237793 0.0
v 0.5339100956916809 -0.7490184903144836 0.0
v 0.5437524914741516 -0.8179153800010681 0.0
v 0.5339100956916809 -0.8868122696876526 0.0
v 0.5093041062355042 -0.9409455060958862 0.0
v 0.4650132358074188 -0.9753939509391785 0.0
v 0.40595877170562744 -0.9950788021087646 0.0
v 0.33706188201904297 -0.9950788021087646 0.0
v 0.28292861580848694 -0.9704727530479431 0.0
v 0.24355897307395935 -0.9311031103134155 0.0
v 0.21403174102306366 -0.8818910717964172 0.0
v 0.18942572176456451 -0.8277577757835388 0.0
v 0.16481968760490417 -0.7736245393753052 0.0
v 0.14513486623764038 -0.7145701050758362 0.0
v 0.12052883952856064 -0.6604368090629578 0.0
v 0.10084401816129684 -0.6013823747634888 0.0
v 0.0762379840016365 -0.5472490787506104 0.0
v 0.041789546608924866 -0.5029582381248474 0.0
v -0.0025013023987412453 -0.5374066829681396 0.0
v -0.022186124697327614 -0.5964611172676086 0.0
v -0.03694974258542061 -0.6604368090629578 0.0
v -0.046792153269052505 -0.7293336987495422 0.0
v -0.06155576929450035 -0.7933093905448914 0.0
v -0.08124059438705444 -0.8523638248443604 0.0
v -0.11076782643795013 -0.9015758633613586 0.0
v -0.14521627128124237 -0.9458667635917664 0.0
v -0.1895071119070053 -0.9803151488304138 0.0
v -0.2485615760087967 -1.0 0.0
v -0.31745845079421997 -0.9901576042175293 0.0
v -0.37651291489601135 -0.9704727530479431 0.0
v -0.41588255763053894 -0.9311031103134155 0.0
v -0.4454098045825958 -0.8818910717964172 0.0
v -0.4552522301673889 -0.8129941821098328 0.0
v -0.4503310024738312 -0.7391760945320129 0.0
v -0.4404886066913605 -0.6702792048454285 0.0
v -0.42572498321533203 -0.6063035726547241 0.0
v -0.4109613597393036 -0.542327880859375 0.0
v -0.4011189639568329 -0.4734309911727905 0.0
v -0.3912765383720398 -0.40453413128852844 0.0
v -0.37651291489601135 -0.3405584394931793 0.0
v -0.371591717004776 -0.2667403519153595 0.0
v -0.3617493212223053 -0.1978434920310974 0.0
v -0.35682809352874756 -0.12402540445327759 0.0
v -0.34698569774627686 -0.05512852594256401 0.0
v -0.3420644998550415 0.018689557909965515 0.0
v -0.39619773626327515 0.03345317393541336 0.0
v -0.4650946259498596 0.023610763251781464 0.0
v -0.5389127135276794 0.018689557909965515 0.0
v -0.6127308011054993 0.013768352568149567 0.0
v -0.6865488886833191 0.018689557909965515 0.0
v -0.7456033229827881 0.03837437927722931 0.0
v -0.8046578168869019 0.0580592043697834 0.0
v -0.8391062617301941 0.10235005617141724 0.0
v -0.8538698554039001 0.16632571816444397 0.0
v -0.32640624046325684 -0.8809964060783386 0.0
v -0.7666305303573608 0.1909317523241043 0.0
v -0.252588152885437 0.3622792959213257 0.0
v -0.21813970804214478 0.81010901927948 0.0
v 0.33303532004356384 -0.8809964060783386 0.0
v -0.3640780448913574 -0.918668270111084 0.0
v -0.8137202262878418 0.1909317523241043 0.0
v -0.2902599573135376 0.39995113015174866 0.0
v -0.25581154227256775 0.8477808237075806 0.0
v 0.29536348581314087 -0.918668270111084 0.0
v -0.3104395270347595 -0.9346349835395813 0.0
v -0.38607674837112427 -0.8589977025985718 0.0
v -0.8115870356559753 0.14239199459552765 0.0
v -0.7901753187179565 0.24102447926998138 0.0
v -0.33820584416389465 0.314333438873291 0.0
v -0.20464228093624115 0.4478969871997833 0.0
v -0.2778102159500122 0.7881103157997131 0.0
v -0.19250987470149994 0.8734106421470642 0.0
v 0.3518129587173462 -0.937445878982544 0.0
v 0.2733648121356964 -0.8589977025985718 0.0
v -0.689602255821228 0.25771674513816833 0.0
v -0.30215856432914734 0.3503807485103607 0.0
v -0.25421276688575745 0.43599840998649597 0.0
v -0.737534761428833 0.23518723249435425 0.0
v -0.25628039240837097 0.26845529675483704 0.0
v -0.25026193261146545 0.528745174407959 0.0
v -0.6736299395561218 0.1614808887243271 0.0
v -0.7353507280349731 0.29279446601867676 0.0
v -0.26766592264175415 0.315887987613678 0.0
v -0.2657553553581238 0.4829476773738861 0.0
v -0.6951878666877747 0.20734626054763794 0.0
v -0.17788803577423096 0.3123549222946167 0.0
v -0.6031021475791931 0.22262981534004211 0.0
v -0.2222786843776703 0.3267824351787567 0.0
v -0.17965681850910187 0.38241738080978394 0.0
v -0.6513004302978516 0.227974534034729 0.0
v -0.6183525919914246 0.30509957671165466 0.0
v -0.3196955621242523 -0.664463222026825 0.0
v -0.27048349380493164 -0.39871808886528015 0.0
v 0.22879521548748016 -0.6438837647438049 0.0
v 0.13752920925617218 -0.46403610706329346 0.0
v 0.313798189163208 0.04642720893025398 0.0
v 0.12813448905944824 0.8212935924530029 0.0
v 0.7007837295532227 0.1578252762556076 0.0
v -0.20650748908519745 -0.8626537322998047 0.0
v 0.43376100063323975 -0.873948872089386 0.0
v -0.2393251210451126 -0.9292852878570557 0.0
v -0.4259616434574127 -0.8439612984657288 0.0
v -0.3793637454509735 -0.7807745933532715 0.0
v -0.756377100944519 0.10447724908590317 0.0
v 0.14513501524925232 0.5027571320533752 0.0
v -0.2861640155315399 0.7019507884979248 0.0
v -0.11712711304426193 0.8989784717559814 0.0
v 0.2615675926208496 -0.7623071074485779 0.0
v -0.34295931458473206 0.12203472852706909 0.0
v -0.3052900731563568 0.5431841015815735 0.0
v -0.68118816614151 0.31606191396713257 0.0
v -0.590551495552063 0.35236436128616333 0.0
v -0.5220496654510498 0.2802630066871643 0.0
v -0.5281869173049927 0.3548447787761688 0.0
v -0.5666396617889404 0.30649086833000183 0.0
v -0.5914638638496399 0.26742684841156006 0.0
v -0.5491138100624084 0.23251397907733917 0.0
v -0.5585861206054688 0.13186542689800262 0.0
v -0.45093581080436707 0.20841136574745178 0.0
v -0.5680440068244934 0.18352554738521576 0.0
v -0.496625691652298 0.2343083620071411 0.0
v -0.6206539273262024 0.17162667214870453 0.0
v -0.5036769509315491 0.168614000082016 0.0
v -0.42983147501945496 0.29889941215515137 0.0
v -0.6328420042991638 0.09188693761825562 0.0
v -0.47342878580093384 0.2771519720554352 0.0
v -0.4747461974620819 0.33436670899391174 0.0
v -0.14297913014888763 -0.6022771596908569 0.0
v -0.34810420870780945 -0.5905246734619141 0.0
v -0.38091227412223816 -0.6503362655639648 0.0
v -0.04142347723245621 -0.44166702032089233 0.0
v -0.33170023560523987 -0.38459116220474243 0.0
v 0.1769963949918747 -0.6674286127090454 0.0
v 0.3849319815635681 -0.6313568949699402 0.0
v 0.09514839202165604 -0.49699893593788147 0.0
v 0.1500668078660965 -0.5463494658470154 0.0
v 0.057904813438653946 -0.4053880274295807 0.0
v 0.0636071264743805 -0.4564458131790161 0.0
v 0.012892032973468304 -0.4362625181674957 0.0
v -0.01933354325592518 -0.341030091047287 0.0
v -0.009728572331368923 -0.48456329107284546 0.0
v -0.018749631941318512 -0.39390110969543457 0.0
v -0.09922398626804352 -0.5175315737724304 0.0
v -0.1147623285651207 -0.3775895833969116 0.0
v -0.04867139458656311 -0.5168052911758423 0.0
v -0.06905629485845566 -0.3992856442928314 0.0
v -0.07320030778646469 -0.569192111492157 0.0
v -0.07197631150484085 -0.34644562005996704 0.0
v -0.12069644033908844 -0.4490821361541748 0.0
v -0.05525520443916321 -0.2504167854785919 0.0
v -0.14857886731624603 -0.28616979718208313 0.0
v -0.050073206424713135 -0.30078932642936707 0.0
v -0.11877799779176712 -0.3271106779575348 0.0
v 0.03663232922554016 -0.2664167881011963 0.0
v -0.09735525399446487 -0.28020063042640686 0.0
v -0.19881382584571838 -0.35405227541923523 0.0
v -0.011567866429686546 -0.2713753283023834 0.0
v -0.1335488259792328 -0.192379891872406 0.0
v 0.0037421167362481356 -0.1834503710269928 0.0
v -0.12783706188201904 -0.2413945347070694 0.0
v -0.0873105525970459 -0.21183177828788757 0.0
v -0.21758222579956055 -0.22701260447502136 0.0
v -0.03956172987818718 -0.20477129518985748 0.0
v -0.1747378706932068 -0.24685993790626526 0.0
v -0.055705830454826355 -0.11734510213136673 0.0
v -0.2219277024269104 -0.2925608456134796 0.0
v -0.09179231524467468 -0.15780365467071533 0.0
v -0.14547090232372284 -0.07360309362411499 0.0
v -0.14691588282585144 -0.13373489677906036 0.0
v 0.32453539967536926 -0.43808773159980774 0.0
v 0.36088794469833374 0.018173303455114365 0.0
v 0.3874293863773346 0.1157774105668068 0.0
v 0.28725674748420715 -0.05117698013782501 0.0
v 0.3603939712047577 0.07071837782859802 0.0
v 0.33385252952575684 -0.026885734871029854 0.0
v 0.29403436183929443 0.14117422699928284 0.0
v 0.33502525091171265 -0.08597136288881302 0.0
v 0.31727808713912964 0.0965878963470459 0.0
v 0.22661694884300232 0.07767651975154877 0.0
v 0.274614542722702 0.07434665411710739 0.0
v 0.24590131640434265 0.008056356571614742 0.0
v 0.17051531374454498 0.8542564511299133 0.0
v 0.11685730516910553 0.8795190453529358 0.0
v 0.18841588497161865 0.7875151634216309 0.0
v 0.7196196913719177 0.10131753981113434 0.0
v 0.7763001918792725 0.15769746899604797 0.0
v 0.7250036001205444 0.2524297833442688 0.0
v -0.1641266644001007 -0.8956165909767151 0.0
v -0.14622609317302704 -0.8288753032684326 0.0
v 0.3846370279788971 -0.895179271697998 0.0
v 0.4292179346084595 -0.9308848977088928 0.0
v 0.3790062665939331 -0.814702570438385 0.0
v 0.4818538725376129 -0.8958092331886292 0.0
v 0.4817565679550171 -0.8321909308433533 0.0
v -0.3391457796096802 -0.8236256837844849 0.0
v -0.6989509463310242 0.07990741729736328 0.0
v -0.7678303122520447 0.14695417881011963 0.0
v -0.718161940574646 0.13756389915943146 0.0
v 0.1969338208436966 0.47921231389045715 0.0
v -0.33174222707748413 0.7124688625335693 0.0
v -0.3229631185531616 0.6535250544548035 0.0
v -0.29982611536979675 0.7467601895332336 0.0
v -0.23888948559761047 0.7408518195152283 0.0
v -0.1308017522096634 0.9400023818016052 0.0
v -0.1679016798734665 0.9124943614006042 0.0
v -0.07568155974149704 0.9355847239494324 0.0
v -0.03151153028011322 0.8438100218772888 0.0
v -0.06653915345668793 0.8834682703018188 0.0
v -0.11932842433452606 0.8015447854995728 0.0
v 0.0023901667445898056 0.9090511202812195 0.0
v -0.08138048648834229 0.83506178855896 0.0
v -0.040938008576631546 0.7510321736335754 0.0
v -0.04930884763598442 0.7987503409385681 0.0
v 0.03946801647543907 0.7897304892539978 0.0
v 0.2083214819431305 -0.7263159155845642 0.0
v 0.21500740945339203 -0.783470869064331 0.0
v 0.23780004680156708 -0.8261685371398926 0.0
v 0.28728964924812317 -0.8082337379455566 0.0
v 0.33748659491539 -0.7499536275863647 0.0
v -0.3570862412452698 0.07023591548204422 0.0
v -0.2581978440284729 0.07109218090772629 0.0
v -0.4311608374118805 0.1182638481259346 0.0
v -0.3077627718448639 0.08460988104343414 0.0
v -0.38645824790000916 0.10607226938009262 0.0
v -0.3877192735671997 0.17675895988941193 0.0
v -0.25901713967323303 0.16571597754955292 0.0
v -0.29482802748680115 0.13203731179237366 0.0
v -0.3212432265281677 0.1960032880306244 0.0
v -0.6440688371658325 0.3432617485523224 0.0
v -0.4217110872268677 0.3553558588027954 0.0
v -0.3905075788497925 -0.5807393193244934 0.0
v -0.35856249928474426 -0.5390773415565491 0.0
v -0.26213139295578003 -0.5462613701820374 0.0
v -0.31136009097099304 -0.5562686324119568 0.0
v -0.29369834065437317 -0.6120477318763733 0.0
v -0.30234459042549133 -0.4745297431945801 0.0
v -0.393341064453125 -0.7121660709381104 0.0
v 0.4414397180080414 -0.6125209927558899 0.0
v 0.17914995551109314 -0.603415310382843 0.0
v -0.1200890988111496 -0.5604271292686462 0.0
v -0.17935623228549957 -0.5050762295722961 0.0
v -0.17361576855182648 -0.5583353638648987 0.0
v -0.2156403511762619 -0.5359259843826294 0.0
v -0.21740809082984924 -0.6215187907218933 0.0
v -0.23695015907287598 -0.4740995466709137 0.0
v -0.18318627774715424 -0.31308820843696594 0.0
v -0.29250073432922363 -0.25496411323547363 0.0
v -0.2568419277667999 -0.3407744765281677 0.0
v -0.10506334155797958 -0.10465732216835022 0.0
v -0.05789272487163544 -0.0235039833933115 0.0
v -0.09843920171260834 -0.05422194302082062 0.0
v -0.13262046873569489 0.03301471471786499 0.0
v -0.13997584581375122 -0.020182078704237938 0.0
v -0.09800487756729126 0.0011216438142582774 0.0
v -0.20631179213523865 0.016096943989396095 0.0
v -0.03429435193538666 0.05991659313440323 0.0
v -0.19474565982818604 -0.04154137149453163 0.0
v -0.08454950153827667 0.05045729875564575 0.0
v -0.07619060575962067 0.14427544176578522 0.0
v -0.13038747012615204 0.10182275623083115 0.0
v -0.06713928282260895 0.09618758410215378 0.0
v 0.013581599108874798 0.13627704977989197 0.0
v -0.03243253007531166 0.1276160627603531 0.0
v -0.02477903850376606 0.21351684629917145 0.0
v -0.19010214507579803 -0.17442436516284943 0.0
v 0.3857521414756775 -0.42396080493927 0.0
v 0.43597304821014404 0.07727380096912384 0.0
v 0.22342683374881744 0.31754106283187866 0.0
v 0.24946020543575287 -0.15325459837913513 0.0
v 0.34701940417289734 -0.14435872435569763 0.0
v 0.23119716346263885 0.7707942128181458 0.0
v 0.1801648885011673 0.7033151984214783 0.0
v 0.23218461871147156 0.7170108556747437 0.0
v 0.22246912121772766 0.6482725739479065 0.0
v 0.6478867530822754 0.10879974812269211 0.0
v 0.7385101914405823 0.13900761306285858 0.0
v 0.7748386263847351 0.11310332268476486 0.0
v 0.7385903596878052 0.18639494478702545 0.0
v 0.7935516238212585 0.21949158608913422 0.0
v 0.6903812289237976 0.21089103817939758 0.0
v 0.637566328048706 0.17298515141010284 0.0
v 0.6360849142074585 0.29134517908096313 0.0
v 0.6749006509780884 0.2589922547340393 0.0
v 0.7072564363479614 0.31147757172584534 0.0
v 0.6194683313369751 0.2319478541612625 0.0
v 0.7563003301620483 0.2926684617996216 0.0
v -0.10344481468200684 -0.8121543526649475 0.0
v -0.10656960308551788 -0.7492302656173706 0.0
v -0.13972608745098114 -0.7824164032936096 0.0
v -0.18197782337665558 -0.7070459127426147 0.0
v -0.20359987020492554 -0.7971641421318054 0.0
v 0.4376639425754547 -0.7375378012657166 0.0
v 0.5043140649795532 -0.7883979678153992 0.0
v 0.45128512382507324 -0.7887891530990601 0.0
v -0.27152305841445923 -0.8387094736099243 0.0
v -0.3009929955005646 -0.7475184202194214 0.0
v -0.6604501605033875 0.055842045694589615 0.0
v 0.19937175512313843 0.5533268451690674 0.0
v 0.12929578125476837 0.39915981888771057 0.0
v -0.31975746154785156 0.5974528193473816 0.0
v -0.1935657411813736 0.6375966668128967 0.0
v -0.029581524431705475 0.9431034922599792 0.0
v 0.04984087496995926 0.9311935305595398 0.0
v 0.05198616534471512 0.8646820187568665 0.0
v 0.09330834448337555 0.9182723760604858 0.0
v 0.266859233379364 -0.6970963478088379 0.0
v -0.45585834980010986 0.16008883714675903 0.0
v -0.4890501797199249 0.11228474974632263 0.0
v -0.45601269602775574 0.3844238221645355 0.0
v -0.3865227699279785 0.3214823305606842 0.0
v -0.37628597021102905 0.24903105199337006 0.0
v -0.35573017597198486 0.36274608969688416 0.0
v -0.3092542588710785 -0.4270249307155609 0.0
v -0.3515476882457733 -0.45743152499198914 0.0
v -0.4097219407558441 -0.75123131275177 0.0
v 0.41870060563087463 -0.5544846057891846 0.0
v 0.4580702483654022 -0.6725935339927673 0.0
v 0.2728159427642822 -0.5391949415206909 0.0
v 0.14039094746112823 -0.5872246026992798 0.0
v -0.2610307037830353 -0.6609052419662476 0.0
v -0.2694571912288666 -0.5032305717468262 0.0
v -0.1829017549753189 -0.44263869524002075 0.0
v -0.24874499440193176 -0.2578648328781128 0.0
v -0.26740357279777527 -0.20785410702228546 0.0
v -0.27333423495292664 -0.2973136305809021 0.0
v -0.326812207698822 -0.29600462317466736 0.0
v -0.31559228897094727 -0.21242238581180573 0.0
v -0.2971966862678528 -0.1500246822834015 0.0
v -0.2727506160736084 -0.027214786037802696 0.0
v -0.1992722600698471 -0.10239345580339432 0.0
v 0.3676796853542328 -0.3607487082481384 0.0
v 0.3972069025039673 -0.4887000620365143 0.0
v 0.3996564745903015 0.05701347813010216 0.0
v 0.5117959380149841 0.10926366597414017 0.0
v 0.24226275086402893 0.3740488588809967 0.0
v 0.2827540338039398 -0.10754609107971191 0.0
v 0.3291477560997009 -0.22287708520889282 0.0
v 0.6811063885688782 0.07968289405107498 0.0
v 0.8190332055091858 0.17907260358333588 0.0
v 0.5998079776763916 0.34433436393737793 0.0
v -0.09393355995416641 -0.687447726726532 0.0
v -0.1796354204416275 -0.7552608847618103 0.0
v -0.23920415341854095 -0.733990490436554 0.0
v 0.48785340785980225 -0.7259557247161865 0.0
v -0.23094169795513153 -0.8287595510482788 0.0
v -0.2520601153373718 -0.7828559875488281 0.0
v -0.33406347036361694 -0.778556764125824 0.0
v -0.34760648012161255 -0.7309901118278503 0.0
v 0.2336357682943344 0.5256006121635437 0.0
v 0.1744043081998825 0.4296473264694214 0.0
v 0.12598289549350739 0.45267581939697266 0.0
v 0.18203212320804596 0.36974701285362244 0.0
v 0.046778637915849686 0.5116679668426514 0.0
v 0.0404626801609993 0.4205211400985718 0.0
v 0.0947001650929451 0.49334171414375305 0.0
v 0.08815758675336838 0.4234737455844879 0.0
v 0.1032266691327095 0.5874565839767456 0.0
v 0.05647469311952591 0.46520382165908813 0.0
v 0.06911982595920563 0.34430328011512756 0.0
v 0.08569082617759705 0.5416015982627869 0.0
v -0.030741389840841293 0.4712473452091217 0.0
v 0.013170547783374786 0.5956153273582458 0.0
v 0.04181335121393204 0.5583812594413757 0.0
v -0.02273849956691265 0.5383579134941101 0.0
v -0.26547038555145264 0.5828623175621033 0.0
v -0.23078930377960205 0.6828324198722839 0.0
v 0.22512352466583252 -0.6867304444313049 0.0
v 0.29564163088798523 -0.7322520613670349 0.0
v 0.34127798676490784 -0.682681679725647 0.0
v -0.45581063628196716 0.0736917033791542 0.0
v -0.5080374479293823 0.06232050433754921 0.0
v -0.5679072737693787 0.07194725424051285 0.0
v 0.2354206144809723 -0.5850701332092285 0.0
v -0.28804120421409607 -0.7009685635566711 0.0
v -0.2132999747991562 -0.6699191331863403 0.0
v -0.15905895829200745 -0.6559343934059143 0.0
v -0.1481684148311615 -0.41080930829048157 0.0
v -0.22908653318881989 -0.4254520535469055 0.0
v -0.3320651352405548 -0.3401429057121277 0.0
v -0.3592887222766876 -0.1609344482421875 0.0
v -0.2428240180015564 -0.15860173106193542 0.0
v -0.2613300085067749 -0.09928608685731888 0.0
v -0.23088973760604858 -0.018814660608768463 0.0
v -0.2537064850330353 0.023355677723884583 0.0
v -0.24446405470371246 -0.059672996401786804 0.0
v -0.29735204577445984 0.010920877568423748 0.0
v 0.48038387298583984 0.07786379754543304 0.0
v 0.45745256543159485 0.1322159469127655 0.0
v 0.579915463924408 0.13079296052455902 0.0
v 0.32295382022857666 0.31575867533683777 0.0
v 0.19418157637119293 -0.07210666686296463 0.0
v 0.35372427105903625 -0.18717792630195618 0.0
v 0.3004985749721527 -0.1735776960849762 0.0
v 0.24494892358779907 -0.23883315920829773 0.0
v 0.26168331503868103 -0.1968071460723877 0.0
v 0.19121620059013367 -0.1930924355983734 0.0
v 0.3484175503253937 -0.29181182384490967 0.0
v 0.5482991933822632 0.3673969507217407 0.0
v 0.562528133392334 0.27989986538887024 0.0
v -0.08738436549901962 -0.6276506185531616 0.0
v -0.1348351389169693 -0.7112658023834229 0.0
v -0.29404929280281067 -0.7995420694351196 0.0
v 0.12983208894729614 0.33813750743865967 0.0
v -0.20038527250289917 0.571957528591156 0.0
v -0.2462344616651535 0.6321898698806763 0.0
v -0.14586693048477173 0.7147798538208008 0.0
v 0.29392415285110474 -0.6375160217285156 0.0
v 0.21049726009368896 -0.5265747904777527 0.0
v 0.29327210783958435 0.3596656620502472 0.0
v 0.2731441855430603 0.3140728771686554 0.0
v 0.34302234649658203 0.3613113760948181 0.0
v 0.24213719367980957 0.22767192125320435 0.0
v 0.41374051570892334 0.30295902490615845 0.0
v 0.40160614252090454 0.3644871413707733 0.0
v 0.3000548481941223 0.25565105676651 0.0
v 0.24545593559741974 0.2752451002597809 0.0
v 0.37015220522880554 0.32216206192970276 0.0
v 0.16132980585098267 0.2583144009113312 0.0
v 0.35322099924087524 0.2698122262954712 0.0
v 0.3444334864616394 0.19592046737670898 0.0
v 0.23213453590869904 -0.10565491020679474 0.0
v 0.17489878833293915 -0.13216324150562286 0.0
v 0.596570611000061 0.30320560932159424 0.0
v 0.5609938502311707 0.3266977369785309 0.0
v 0.48564285039901733 0.32552406191825867 0.0
v 0.5181937217712402 0.20022134482860565 0.0
v -0.18992657959461212 0.5094952583312988 0.0
v -0.10400394350290298 0.5951179265975952 0.0
v -0.28007447719573975 0.6591284275054932 0.0
v -0.19530847668647766 0.7173610925674438 0.0
v -0.16782763600349426 0.7689380645751953 0.0
v 0.33960357308387756 -0.637030303478241 0.0
v 0.35450050234794617 -0.5721357464790344 0.0
v 0.3163413107395172 -0.5975332260131836 0.0
v 0.25512751936912537 -0.46636512875556946 0.0
v 0.16880345344543457 -0.5013840794563293 0.0
v 0.19670367240905762 -0.44625309109687805 0.0
v 0.0930025726556778 0.2774789333343506 0.0
v 0.2902490794658661 0.20201414823532104 0.0
v 0.24144679307937622 0.1684400737285614 0.0
v 0.2084701508283615 -0.15582212805747986 0.0
v 0.07807637751102448 -0.06795192509889603 0.0
v 0.09762123227119446 -0.18550841510295868 0.0
v 0.5025028586387634 0.36810973286628723 0.0
v 0.4521581530570984 0.3634112477302551 0.0
v 0.49944740533828735 0.1558361053466797 0.0
v 0.4439036250114441 0.2054467350244522 0.0
v -0.22393430769443512 0.48506268858909607 0.0
v -0.11770704388618469 0.4596853256225586 0.0
v -0.156282439827919 0.6005492806434631 0.0
v -0.15335619449615479 0.5477253198623657 0.0
v -0.12418189644813538 0.6552125215530396 0.0
v -0.1426098346710205 0.5008391737937927 0.0
v -0.08020973205566406 0.510486900806427 0.0
v -0.20920853316783905 0.7696963548660278 0.0
v 0.24691414833068848 -0.5069228410720825 0.0
v 0.29431265592575073 -0.4954110383987427 0.0
v 0.21159501373767853 -0.4850410223007202 0.0
v 0.32159802317619324 -0.5359765887260437 0.0
v 0.36828482151031494 -0.5265437960624695 0.0
v 0.3483670651912689 -0.4813478887081146 0.0
v 0.2559497058391571 -0.36906248331069946 0.0
v 0.1426451951265335 -0.3737145662307739 0.0
v 0.18494439125061035 0.1987186074256897 0.0
v 0.24993230402469635 0.12046027928590775 0.0
v 0.18662968277931213 0.1340050846338272 0.0
v 0.13554303348064423 -0.08640313893556595 0.0
v 0.14577089250087738 -0.17261353135108948 0.0
v 0.10941797494888306 -0.13321444392204285 0.0
v 0.1397775262594223 -0.2465774416923523 0.0
v 0.051489584147930145 -0.14762422442436218 0.0
v -0.16582508385181427 0.6737834811210632 0.0
v -0.04564077407121658 0.6481492519378662 0.0
v -0.08334939181804657 0.703808069229126 0.0
v -0.06846119463443756 0.5594504475593567 0.0
v 0.23924916982650757 -0.4175761938095093 0.0
v 0.2869358956813812 -0.40686067938804626 0.0
v 0.1995183378458023 -0.37676772475242615 0.0
v 0.33160385489463806 -0.3913272023200989 0.0
v 0.3171522319316864 -0.3377074599266052 0.0
v 0.28725218772888184 -0.2837415635585785 0.0
v 0.15649615228176117 -0.41980475187301636 0.0
v 0.10767517983913422 -0.4093500077724457 0.0
v 0.08702940493822098 -0.35411354899406433 0.0
v 0.10899175703525543 0.20309914648532867 0.0
v 0.14120742678642273 0.017768332734704018 0.0
v 0.07302045822143555 -0.11053691804409027 0.0
v 0.006920219864696264 -0.08109656721353531 0.0
v -0.08646156638860703 0.634442925453186 0.0
v -0.05312162637710571 0.6027889847755432 0.0
v -0.09348518401384354 0.7555675506591797 0.0
v 0.174616739153862 -0.3093924820423126 0.0
v 0.28876879811286926 -0.2399340718984604 0.0
v 0.27298784255981445 -0.3269108533859253 0.0
v 0.23513084650039673 -0.2904605269432068 0.0
v 0.19332469999790192 -0.2557629346847534 0.0
v 0.0326702706515789 -0.35714560747146606 0.0
v 0.057459596544504166 -0.31277725100517273 0.0
v 0.11578439921140671 -0.30229926109313965 0.0
v 0.1479855626821518 0.21855030953884125 0.0
v 0.1451193243265152 0.16885405778884888 0.0
v 0.08267221599817276 0.1391533613204956 0.0
v 0.1334751546382904 0.11283712834119797 0.0
v 0.12087658792734146 -0.03336591646075249 0.0
v 0.1725551038980484 -0.024304235354065895 0.0
v 0.04999413713812828 0.024425508454442024 0.0
v 0.21966683864593506 -0.031783513724803925 0.0
v 0.19466494023799896 0.024884168058633804 0.0
v 0.0945507362484932 0.006709963548928499 0.0
v 0.16181737184524536 0.0672934502363205 0.0
v 0.09292387217283249 0.06750843673944473 0.0
v 0.05652162432670593 -0.02404734678566456 0.0
v -0.0006062148022465408 -0.007064396049827337 0.0
v 0.0025933647993952036 -0.13218846917152405 0.0
v 0.21512973308563232 -0.3327084481716156 0.0
v 0.08839374780654907 -0.2574787139892578 0.0
v 0.05467887595295906 -0.21657930314540863 0.0
v 0.035680316388607025 0.08161845058202744 0.0
v 0.006236510816961527 0.038339387625455856 0.0
v -0.03822119161486626 0.015979349613189697 0.0
v -0.020301399752497673 -0.046465352177619934 0.0
v -0.7771458029747009 0.28214091062545776 0.0
v -0.22370068728923798 0.3997932970523834 0.0
v -0.27270635962486267 -0.960885763168335 0.0
v -0.6045944690704346 0.12837065756320953 0.0
v -0.07843682169914246 -0.4734179973602295 0.0
v 0.29428917169570923 0.0016912890132516623 0.0
v -0.19239160418510437 -0.9332988262176514 0.0
v 0.39217764139175415 -0.9537748694419861 0.0
v -0.6713622808456421 0.11606036126613617 0.0
v -0.7262597680091858 0.17890289425849915 0.0
v -0.1669658124446869 0.82622891664505 0.0
v -0.148261159658432 0.8668611645698547 0.0
v 0.33411169052124023 -0.7978042960166931 0.0
v -0.34790313243865967 0.16365817189216614 0.0
v -0.2723078429698944 0.21747611463069916 0.0
v -0.17497125267982483 0.21488328278064728 0.0
v -0.31537064909935 0.2590237259864807 0.0
v -0.22326959669589996 0.23006793856620789 0.0
v -0.18627788126468658 0.26332443952560425 0.0
v -0.09947621822357178 0.25804468989372253 0.0
v -0.14164617657661438 0.2809203565120697 0.0
v -0.08000893890857697 0.3442382514476776 0.0
v -0.1298655867576599 0.3311119079589844 0.0
v -0.11908002197742462 0.3913927972316742 0.0
v -0.052638035267591476 0.40668100118637085 0.0
v -0.13621878623962402 -0.49154406785964966 0.0
v -0.2524016201496124 -0.5913968086242676 0.0
v -0.19291162490844727 0.08071352541446686 0.0
v -0.17370814085006714 0.04303336516022682 0.0
v -0.18058352172374725 0.14734938740730286 0.0
v -0.23185233771800995 0.11863569915294647 0.0
v 0.12829549610614777 0.7509022355079651 0.0
v 0.661522626876831 0.33728641271591187 0.0
v 0.3898458182811737 -0.7620654106140137 0.0
v 0.3915351629257202 -0.7064827680587769 0.0
v 0.4244314432144165 -0.8276460766792297 0.0
v -0.2749998867511749 -0.8909562230110168 0.0
v 0.24014988541603088 0.5851152539253235 0.0
v 0.19145183265209198 0.6055358052253723 0.0
v 0.15218012034893036 0.5728732347488403 0.0
v 0.14131952822208405 0.6258716583251953 0.0
v 0.06473800539970398 0.6637164950370789 0.0
v 0.09671172499656677 0.6320111751556396 0.0
v 0.12630008161067963 0.681869626045227 0.0
v 0.052504975348711014 0.6194050908088684 0.0
v 0.009669625200331211 0.655074954032898 0.0
v 0.08228098601102829 0.7176871299743652 0.0
v -0.023882068693637848 0.6987036466598511 0.0
v 0.029731707647442818 0.7052187919616699 0.0
v 0.04782083258032799 0.7459514737129211 0.0
v 0.08636244386434555 0.7759914398193359 0.0
v 0.004117274656891823 0.7602993845939636 0.0
v -0.003755858400836587 0.8057022094726562 0.0
v 0.07941586524248123 0.824306309223175 0.0
v 0.007565933279693127 0.8649328351020813 0.0
v -0.4252590537071228 0.250127911567688 0.0
v -0.3612043261528015 0.20960478484630585 0.0
v 0.0029034181497991085 0.5012677907943726 0.0
v 0.012095835991203785 0.4571017324924469 0.0
v -0.006102472078055143 0.4137006998062134 0.0
v -0.021143928170204163 0.3556557893753052 0.0
v 0.023333225399255753 0.37510165572166443 0.0
v 0.020377617329359055 0.3212740123271942 0.0
v -0.03924604505300522 0.29153186082839966 0.0
v -0.41310441493988037 0.07268329709768295 0.0
v -0.6081501245498657 0.05659566819667816 0.0
v -0.29962462186813354 -0.06841381639242172 0.0
v -0.3151056468486786 -0.10971593856811523 0.0
v 0.5560987591743469 0.08761857450008392 0.0
v 0.38900697231292725 -0.284628689289093 0.0
v 0.36276477575302124 -0.2501784563064575 0.0
v 0.3451426327228546 0.1446959525346756 0.0
v 0.3941570520401001 0.1709916889667511 0.0
v 0.3915214240550995 0.2277889847755432 0.0
v 0.4344913363456726 0.2559565305709839 0.0
v 0.4835907518863678 0.23897410929203033 0.0
v 0.5301636457443237 0.24573460221290588 0.0
v 0.4711821675300598 0.2825675904750824 0.0
v 0.5171406269073486 0.29100847244262695 0.0
v 0.5704867839813232 0.21079905331134796 0.0
v 0.5519172549247742 0.16805200278759003 0.0
v 0.39376989006996155 -0.5893861055374146 0.0
v 0.13443994522094727 0.2938298285007477 0.0
v 0.18028713762760162 0.3006048798561096 0.0
v -0.1577175259590149 0.42829567193984985 0.0
v 0.04363672807812691 0.22795839607715607 0.0
v 0.012597448192536831 -0.3093297779560089 0.0
v 0.24665102362632751 -0.06521701067686081 0.0
v -0.00620820140466094 0.09301946312189102 0.0
v -0.05718851462006569 -0.07232233136892319 0.0
v -0.21978646516799927 0.28625547885894775 0.0
v -0.07207055389881134 0.4492674171924591 0.0
v -0.12812376022338867 0.154754176735878 0.0
v -0.09190472960472107 0.20032677054405212 0.0
v -0.13045541942119598 0.22462521493434906 0.0
v -0.21368692815303802 0.18263983726501465 0.0
v 0.17211942374706268 0.7466078996658325 0.0
v 0.14804263412952423 0.7861432433128357 0.0
v 0.41318392753601074 -0.6667267680168152 0.0
v 0.1270490437746048 0.5399863719940186 0.0
v 0.17647571861743927 0.6567016243934631 0.0
v -0.08319041877985 0.2996616065502167 0.0
v -0.05464883893728256 0.2483266144990921 0.0
v 0.605932891368866 0.08113471418619156 0.0
v 0.08437304198741913 0.23671534657478333 0.0
v 0.043483916670084 0.27747681736946106 0.0
v 0.0167610552161932 0.1860017627477646 0.0
v 0.06485521793365479 0.18387606739997864 0.0
v -0.0023806302342563868 0.25801920890808105 0.0
f 167 97 166
f 411 167 259
f 95 124 130
f 330 396 61
f 379 97 167
f 180 177 179
f 647 645 646
f 194 99 301
f 194 193 295
f 124 95 94
f 7 176 178
f 86 405 352
f 173 288 284
f 284 110 109
f 128 123 138
f 4 175 5
f 146 139 175
f 295 101 100
f 75 138 281
f 300 378 296
f 295 296 101
f 587 126 121
f 148 144 174
f 271 272 275
f 124 94 129
f 55 54 235
f 592 165 91
f 139 155 175
f 444 106 391
f 165 622 588
f 253 163 252
f 134 141 587
f 351 352 353
f 133 602 147
f 112 435 436
f 90 89 252
f 5 175 293
f 129 588 622
f 587 141 126
f 220 312 157
f 124 119 130
f 212 217 208
f 195 206 210
f 168 117 116
f 209 83 205
f 129 94 93
f 312 196 157
f 140 147 121
f 137 73 72
f 355 253 353
f 211 464 84
f 219 217 212
f 264 16 15
f 96 95 130
f 293 175 155
f 283 620 433
f 125 118 131
f 177 185 190
f 168 116 115
f 257 68 258
f 4 146 175
f 11 126 141
f 125 1 118
f 589 182 184
f 168 131 117
f 176 7 6
f 277 637 638
f 185 181 187
f 592 90 252
f 132 2 1
f 145 154 149
f 125 132 1
f 149 139 142
f 330 395 543
f 586 4 3
f 154 155 139
f 171 268 269
f 146 4 586
f 6 293 176
f 148 141 512
f 139 149 154
f 595 142 120
f 140 121 126
f 164 257 258
f 174 13 12
f 125 261 120
f 12 11 148
f 363 415 420
f 125 131 261
f 376 9 294
f 11 141 148
f 92 588 93
f 126 11 10
f 121 147 152
f 190 183 641
f 174 12 148
f 100 99 194
f 122 127 135
f 96 130 166
f 127 18 135
f 18 127 19
f 246 248 28
f 259 130 119
f 136 19 127
f 260 115 114
f 20 19 136
f 136 269 20
f 156 194 301
f 21 268 22
f 166 130 167
f 267 135 266
f 7 178 8
f 260 168 115
f 163 359 622
f 84 83 211
f 180 181 177
f 79 78 197
f 97 96 166
f 302 381 64
f 77 76 280
f 73 137 128
f 279 77 280
f 73 128 74
f 512 141 134
f 75 74 138
f 327 328 323
f 105 391 106
f 281 172 280
f 252 89 253
f 29 335 30
f 81 200 199
f 224 225 222
f 241 55 239
f 79 197 303
f 129 119 124
f 235 239 55
f 586 142 146
f 500 199 200
f 10 376 140
f 587 152 153
f 137 123 128
f 177 191 178
f 71 70 255
f 429 469 493
f 374 375 133
f 69 68 257
f 66 65 408
f 249 402 50
f 173 284 287
f 281 282 172
f 104 103 196
f 137 254 123
f 319 321 317
f 431 197 279
f 2 132 586
f 82 81 199
f 128 138 74
f 127 122 136
f 16 266 17
f 57 334 456
f 361 113 651
f 302 64 63
f 146 142 139
f 60 330 61
f 70 69 255
f 667 302 380
f 303 437 472
f 676 152 147
f 176 155 179
f 69 257 255
f 351 88 87
f 53 331 54
f 338 31 337
f 131 118 117
f 165 92 91
f 643 428 425
f 132 120 142
f 484 658 659
f 187 371 183
f 35 34 263
f 659 660 477
f 135 18 17
f 160 238 242
f 335 337 30
f 15 265 264
f 246 27 247
f 413 263 34
f 366 272 274
f 247 369 368
f 23 22 270
f 16 264 266
f 246 247 161
f 154 151 180
f 246 28 27
f 676 147 143
f 29 28 248
f 268 270 22
f 543 395 544
f 71 593 72
f 413 623 362
f 265 170 264
f 125 120 132
f 402 51 50
f 162 345 339
f 48 47 341
f 10 140 126
f 47 250 341
f 313 315 232
f 152 150 153
f 49 249 50
f 167 130 259
f 249 340 162
f 145 186 154
f 162 344 345
f 262 595 261
f 404 488 487
f 133 147 140
f 344 349 345
f 23 366 24
f 342 343 251
f 342 162 340
f 44 43 350
f 596 136 122
f 349 344 347
f 44 350 343
f 82 203 205
f 598 123 256
f 331 452 236
f 235 238 160
f 267 519 135
f 254 256 123
f 206 195 203
f 13 174 364
f 595 149 142
f 179 178 176
f 190 191 177
f 180 179 155
f 178 179 177
f 154 180 155
f 180 151 181
f 184 181 151
f 185 187 183
f 184 151 186
f 111 434 435
f 289 183 371
f 177 181 185
f 151 154 186
f 184 182 187
f 187 181 184
f 641 289 642
f 594 589 186
f 184 186 589
f 371 372 286
f 650 434 111
f 373 294 9
f 191 294 373
f 260 594 262
f 112 436 651
f 183 190 185
f 190 188 191
f 191 188 294
f 8 178 191
f 83 209 211
f 298 296 193
f 299 612 298
f 101 296 102
f 99 98 301
f 193 194 156
f 202 82 199
f 82 202 203
f 102 296 378
f 220 230 312
f 279 78 77
f 197 158 303
f 63 380 302
f 158 431 370
f 81 80 383
f 159 547 202
f 79 303 383
f 496 198 497
f 540 501 499
f 329 226 228
f 159 202 199
f 203 202 201
f 201 561 206
f 203 195 205
f 216 221 214
f 215 224 228
f 209 205 590
f 82 205 83
f 201 206 203
f 212 210 206
f 210 213 590
f 304 207 611
f 210 212 208
f 611 590 213
f 590 205 195
f 209 207 211
f 212 206 204
f 210 208 213
f 207 304 211
f 464 405 85
f 212 204 216
f 217 220 208
f 441 220 386
f 309 300 385
f 204 206 561
f 222 225 231
f 224 215 219
f 220 310 230
f 672 221 216
f 219 216 214
f 219 212 216
f 217 215 310
f 501 546 159
f 56 55 241
f 225 224 219
f 217 219 215
f 230 310 228
f 157 377 442
f 672 216 204
f 223 221 218
f 227 221 223
f 231 229 313
f 241 237 400
f 244 245 591
f 225 219 214
f 222 329 228
f 214 227 225
f 227 229 231
f 231 233 222
f 391 105 311
f 221 227 214
f 227 223 229
f 222 228 224
f 228 226 230
f 237 239 591
f 600 603 143
f 226 387 230
f 390 443 389
f 227 231 225
f 313 233 231
f 533 535 507
f 108 393 450
f 321 394 232
f 222 233 329
f 60 395 330
f 200 303 472
f 331 236 397
f 591 239 235
f 238 397 236
f 399 473 36
f 242 244 160
f 580 562 563
f 397 235 54
f 236 657 242
f 591 235 160
f 239 237 241
f 35 399 36
f 603 604 676
f 673 571 455
f 56 241 334
f 236 242 238
f 240 529 244
f 475 36 473
f 535 551 578
f 240 244 242
f 244 243 245
f 506 531 568
f 400 485 333
f 247 27 26
f 161 683 246
f 25 369 26
f 367 24 274
f 336 682 617
f 337 335 682
f 341 250 340
f 249 162 339
f 46 343 403
f 343 46 45
f 42 348 43
f 41 404 618
f 253 89 88
f 592 163 165
f 351 87 352
f 439 440 308
f 254 593 255
f 254 164 621
f 164 254 255
f 254 137 593
f 258 358 621
f 282 283 432
f 258 68 67
f 255 257 164
f 66 357 67
f 67 357 258
f 359 119 622
f 353 406 355
f 114 361 260
f 260 361 594
f 131 168 261
f 262 261 168
f 260 262 168
f 595 145 149
f 413 34 33
f 415 414 263
f 265 15 14
f 266 264 170
f 14 364 265
f 429 364 174
f 267 266 170
f 266 135 17
f 429 493 364
f 277 271 275
f 269 268 21
f 270 268 171
f 20 269 21
f 269 136 597
f 171 272 270
f 23 270 366
f 597 171 269
f 609 153 608
f 597 275 171
f 271 640 272
f 519 494 495
f 267 170 430
f 638 368 640
f 24 367 25
f 171 275 272
f 273 555 277
f 430 494 267
f 633 276 538
f 273 277 275
f 277 276 637
f 628 421 626
f 639 247 368
f 279 172 370
f 197 78 279
f 281 280 76
f 279 280 172
f 75 281 76
f 281 138 282
f 123 282 138
f 283 282 598
f 258 357 358
f 471 370 433
f 450 287 109
f 286 288 289
f 232 315 317
f 173 287 291
f 187 182 372
f 288 650 284
f 109 287 284
f 285 616 291
f 173 599 288
f 286 434 650
f 292 599 291
f 374 188 375
f 315 314 318
f 642 599 292
f 285 291 287
f 291 290 292
f 290 600 292
f 143 602 600
f 176 293 155
f 5 293 6
f 188 374 294
f 374 376 294
f 194 295 100
f 296 295 193
f 298 193 299
f 378 103 102
f 306 304 611
f 297 385 298
f 299 193 156
f 307 309 385
f 192 306 308
f 307 612 306
f 196 377 157
f 296 298 300
f 98 379 301
f 411 412 167
f 380 63 62
f 684 433 620
f 437 303 158
f 383 303 200
f 590 611 207
f 464 304 192
f 309 305 386
f 304 306 192
f 305 307 306
f 297 298 612
f 307 305 309
f 307 297 612
f 156 384 299
f 163 253 355
f 611 386 305
f 309 442 377
f 217 310 220
f 228 310 215
f 387 388 311
f 311 390 389
f 389 230 387
f 443 312 389
f 675 315 313
f 232 233 313
f 584 318 314
f 322 316 318
f 675 313 229
f 318 317 315
f 584 322 318
f 319 613 285
f 324 613 614
f 316 614 317
f 585 576 577
f 316 317 318
f 109 108 450
f 317 321 232
f 327 323 325
f 316 322 324
f 319 447 321
f 446 652 653
f 322 320 325
f 325 324 322
f 568 573 576
f 604 680 606
f 324 678 615
f 290 291 616
f 674 327 325
f 324 325 323
f 454 474 479
f 399 35 416
f 674 325 320
f 327 326 692
f 476 480 482
f 420 423 363
f 394 233 232
f 445 446 392
f 395 60 59
f 396 380 62
f 451 52 654
f 339 345 453
f 35 263 414
f 504 476 528
f 557 457 459
f 56 334 57
f 400 334 241
f 457 456 334
f 29 248 335
f 248 682 335
f 246 683 248
f 338 32 31
f 337 336 338
f 31 30 337
f 417 419 424
f 362 169 263
f 162 342 344
f 453 654 689
f 341 249 49
f 342 340 250
f 249 341 340
f 49 48 341
f 343 342 250
f 344 342 251
f 343 250 403
f 343 45 44
f 346 347 348
f 349 346 487
f 344 251 347
f 451 331 53
f 40 404 41
f 618 404 346
f 348 347 251
f 347 346 349
f 348 251 350
f 42 41 618
f 346 404 487
f 331 451 452
f 348 350 43
f 343 350 251
f 352 87 86
f 253 88 351
f 86 85 405
f 351 353 253
f 465 354 406
f 406 353 465
f 384 308 612
f 156 301 412
f 438 407 384
f 119 359 259
f 65 64 381
f 598 619 283
f 408 357 66
f 357 408 358
f 619 358 356
f 358 619 621
f 163 355 409
f 407 355 406
f 410 466 359
f 355 410 409
f 113 361 114
f 594 361 189
f 623 33 32
f 626 421 625
f 363 414 415
f 363 467 416
f 13 364 14
f 429 174 144
f 469 468 365
f 494 470 495
f 272 366 270
f 24 366 274
f 368 367 274
f 369 367 368
f 640 368 274
f 278 636 639
f 26 369 247
f 25 367 369
f 172 432 370
f 432 433 370
f 372 371 187
f 289 371 286
f 182 436 435
f 434 372 435
f 9 8 373
f 191 373 8
f 188 641 375
f 376 374 133
f 599 642 289
f 600 602 292
f 140 376 133
f 376 10 9
f 378 196 103
f 309 377 300
f 300 377 378
f 378 377 196
f 97 379 98
f 412 379 167
f 62 61 396
f 525 523 524
f 684 302 198
f 408 381 356
f 471 437 158
f 520 472 382
f 81 383 200
f 79 383 80
f 438 384 156
f 439 384 407
f 298 385 300
f 307 385 297
f 441 386 213
f 442 220 157
f 388 387 226
f 389 387 311
f 445 226 329
f 392 444 391
f 311 105 390
f 230 389 312
f 105 104 390
f 196 443 104
f 311 388 391
f 391 388 392
f 445 388 226
f 394 329 233
f 319 448 447
f 392 653 107
f 447 393 449
f 388 445 392
f 655 656 461
f 456 656 57
f 234 525 330
f 523 525 521
f 235 397 238
f 54 331 397
f 339 689 51
f 665 463 662
f 35 414 416
f 473 399 474
f 237 245 571
f 400 333 457
f 460 458 459
f 655 395 59
f 249 339 402
f 51 402 339
f 250 47 403
f 47 46 403
f 39 462 40
f 40 462 404
f 85 84 464
f 192 308 440
f 465 353 352
f 407 406 354
f 407 354 439
f 359 409 410
f 381 408 65
f 408 356 358
f 410 355 407
f 359 163 409
f 407 360 410
f 411 466 360
f 259 359 466
f 412 411 360
f 412 360 438
f 412 301 379
f 623 413 33
f 263 413 362
f 415 263 169
f 414 363 416
f 625 685 362
f 420 419 422
f 363 423 467
f 332 399 416
f 515 518 539
f 415 169 419
f 422 643 644
f 606 605 687
f 685 424 419
f 422 419 417
f 419 420 415
f 423 420 418
f 624 362 623
f 630 421 628
f 422 417 643
f 420 422 418
f 677 610 425
f 528 482 564
f 685 419 169
f 421 630 427
f 424 427 417
f 150 606 608
f 536 516 470
f 428 643 427
f 421 427 424
f 427 426 428
f 365 468 514
f 515 514 468
f 468 429 144
f 469 429 468
f 170 265 493
f 494 430 536
f 197 431 158
f 279 370 431
f 282 432 172
f 433 432 283
f 283 619 620
f 471 498 437
f 650 111 110
f 286 372 434
f 182 435 372
f 111 435 112
f 589 436 182
f 651 436 189
f 158 370 471
f 437 382 472
f 412 438 156
f 407 438 360
f 439 354 440
f 308 384 439
f 465 440 354
f 464 440 405
f 213 208 441
f 220 441 208
f 309 386 442
f 220 442 386
f 312 443 196
f 390 104 443
f 329 394 445
f 392 107 444
f 446 445 394
f 449 394 321
f 446 449 652
f 448 319 285
f 393 652 449
f 285 287 450
f 393 447 448
f 394 449 446
f 321 447 449
f 393 448 450
f 450 448 285
f 52 451 53
f 452 451 398
f 665 349 463
f 37 36 475
f 665 345 349
f 654 453 398
f 474 454 473
f 483 477 481
f 550 569 572
f 486 460 505
f 334 400 457
f 456 401 656
f 459 457 333
f 401 456 457
f 546 547 159
f 159 500 501
f 459 333 505
f 459 458 557
f 486 505 485
f 532 534 460
f 58 655 59
f 461 557 545
f 478 477 509
f 38 37 478
f 509 38 478
f 510 452 398
f 304 464 211
f 440 464 192
f 352 405 465
f 440 465 405
f 360 466 410
f 259 466 411
f 502 482 668
f 416 467 669
f 144 148 512
f 144 491 468
f 365 430 469
f 430 170 493
f 514 516 365
f 470 538 555
f 433 496 471
f 497 498 496
f 520 521 499
f 199 500 159
f 474 399 332
f 473 454 475
f 480 474 332
f 480 479 474
f 481 475 454
f 37 475 478
f 669 480 332
f 240 503 504
f 454 483 481
f 489 664 488
f 481 478 475
f 489 509 477
f 484 479 503
f 484 483 479
f 467 668 669
f 479 480 476
f 483 454 479
f 478 481 477
f 467 423 502
f 504 530 529
f 476 503 479
f 484 657 658
f 240 657 484
f 658 452 511
f 673 400 237
f 485 455 486
f 486 455 531
f 532 486 533
f 488 404 462
f 349 487 463
f 488 462 508
f 463 487 488
f 508 462 39
f 452 510 511
f 398 666 510
f 662 463 664
f 517 134 670
f 515 517 518
f 553 554 537
f 553 516 492
f 364 493 265
f 430 493 469
f 536 430 365
f 555 495 470
f 596 495 273
f 519 495 122
f 433 198 496
f 198 667 497
f 524 380 396
f 496 498 471
f 523 498 497
f 437 498 382
f 544 541 543
f 500 472 522
f 200 472 500
f 520 499 522
f 499 541 540
f 501 540 542
f 423 647 648
f 549 693 566
f 504 503 476
f 240 484 503
f 528 476 482
f 504 528 530
f 459 505 460
f 485 505 333
f 569 568 531
f 223 535 578
f 580 581 218
f 460 486 532
f 38 508 39
f 488 508 489
f 489 508 509
f 38 509 508
f 666 398 453
f 511 510 490
f 511 661 660
f 477 483 659
f 134 491 512
f 144 512 491
f 153 670 134
f 518 517 513
f 515 468 491
f 514 492 516
f 517 515 491
f 492 514 515
f 492 554 553
f 555 538 276
f 134 517 491
f 677 518 513
f 425 428 518
f 539 518 428
f 135 519 122
f 494 519 267
f 521 520 382
f 522 499 501
f 521 382 523
f 234 499 521
f 500 522 501
f 472 520 522
f 498 523 382
f 524 523 497
f 380 524 497
f 524 396 525
f 330 525 396
f 521 525 234
f 526 544 558
f 560 460 534
f 548 563 562
f 201 547 548
f 690 564 482
f 529 530 243
f 244 529 243
f 240 504 529
f 528 564 565
f 582 575 566
f 569 550 568
f 532 533 507
f 533 486 531
f 534 532 507
f 506 551 531
f 535 223 581
f 507 581 580
f 542 556 527
f 533 551 535
f 552 578 551
f 494 536 470
f 365 516 536
f 630 631 426
f 537 633 538
f 470 516 538
f 538 516 553
f 428 426 554
f 515 539 492
f 541 499 234
f 542 540 526
f 543 541 234
f 526 540 541
f 526 558 579
f 542 527 546
f 330 543 234
f 395 461 544
f 545 544 461
f 541 544 526
f 557 461 401
f 558 545 559
f 542 546 501
f 547 546 527
f 548 547 527
f 547 201 202
f 527 556 563
f 672 561 562
f 693 690 671
f 528 565 530
f 567 574 530
f 565 566 567
f 531 551 533
f 551 506 552
f 568 576 506
f 552 585 675
f 554 492 539
f 538 553 537
f 428 554 539
f 426 537 554
f 277 555 276
f 555 273 495
f 558 559 579
f 556 559 560
f 557 401 457
f 458 545 557
f 544 545 558
f 545 458 559
f 560 559 458
f 579 559 556
f 460 560 458
f 556 560 534
f 201 548 561
f 562 561 548
f 527 563 548
f 218 221 672
f 556 534 563
f 580 563 534
f 690 482 502
f 565 564 549
f 671 692 693
f 565 549 566
f 583 582 674
f 565 567 530
f 326 582 566
f 574 567 575
f 569 531 455
f 573 568 550
f 455 571 569
f 569 571 572
f 575 573 550
f 577 583 584
f 455 485 673
f 572 571 245
f 245 243 572
f 243 530 574
f 550 574 575
f 573 570 576
f 550 572 574
f 243 574 572
f 566 575 567
f 570 573 575
f 577 576 570
f 552 506 576
f 583 577 570
f 585 577 314
f 552 229 578
f 229 223 578
f 556 542 579
f 526 579 542
f 507 580 534
f 562 580 218
f 535 581 507
f 223 218 581
f 326 327 674
f 570 575 582
f 582 583 570
f 584 583 320
f 322 584 320
f 314 577 584
f 314 315 675
f 576 585 552
f 2 586 3
f 142 586 132
f 152 587 121
f 134 587 153
f 93 588 129
f 92 165 588
f 594 186 145
f 436 589 189
f 209 590 207
f 210 590 195
f 244 591 160
f 237 591 245
f 90 592 91
f 163 592 252
f 72 593 137
f 71 255 593
f 589 594 189
f 262 594 145
f 261 595 120
f 145 595 262
f 495 596 122
f 273 275 597
f 136 596 597
f 597 596 273
f 123 598 282
f 619 598 256
f 288 599 289
f 291 599 173
f 681 603 600
f 147 602 143
f 615 681 616
f 328 688 679
f 133 375 602
f 602 375 642
f 681 600 290
f 604 603 601
f 680 678 679
f 150 152 676
f 648 691 423
f 150 604 606
f 680 604 601
f 606 687 608
f 691 694 671
f 610 677 609
f 609 608 607
f 153 150 608
f 609 607 610
f 670 609 513
f 610 646 645
f 425 645 644
f 386 611 213
f 611 305 306
f 384 612 299
f 612 308 306
f 614 613 319
f 613 324 615
f 317 614 319
f 324 614 316
f 678 324 323
f 601 603 681
f 285 613 616
f 615 616 613
f 278 635 636
f 635 637 634
f 346 348 618
f 42 618 348
f 619 256 621
f 619 356 620
f 381 684 356
f 620 356 684
f 254 621 256
f 258 621 164
f 129 622 119
f 163 622 165
f 32 338 623
f 624 623 338
f 686 338 336
f 625 624 626
f 421 424 685
f 362 624 625
f 686 624 338
f 617 632 629
f 628 626 629
f 627 629 632
f 626 686 629
f 630 628 627
f 617 629 336
f 627 628 629
f 631 630 627
f 630 426 427
f 632 634 627
f 426 631 537
f 632 636 635
f 633 634 637
f 537 631 633
f 634 633 631
f 627 634 631
f 635 634 632
f 636 632 617
f 637 635 278
f 683 636 617
f 639 636 161
f 637 278 638
f 637 276 633
f 368 638 278
f 271 277 638
f 247 639 161
f 278 639 368
f 272 640 274
f 638 640 271
f 190 641 188
f 289 641 183
f 602 642 292
f 641 642 375
f 643 425 644
f 427 643 417
f 645 425 610
f 418 422 644
f 610 607 646
f 418 644 645
f 649 648 646
f 645 647 418
f 648 647 646
f 423 418 647
f 646 607 649
f 694 649 688
f 607 687 649
f 649 687 688
f 284 650 110
f 286 650 288
f 361 651 189
f 112 651 113
f 393 108 652
f 653 108 107
f 446 653 392
f 108 653 652
f 451 654 398
f 689 52 51
f 656 655 58
f 395 655 461
f 656 58 57
f 461 656 401
f 242 657 240
f 658 657 236
f 452 658 236
f 484 659 483
f 658 511 659
f 659 511 660
f 661 511 490
f 477 660 663
f 662 661 490
f 477 663 489
f 662 490 665
f 463 488 664
f 660 661 663
f 664 661 662
f 489 663 664
f 664 663 661
f 490 666 665
f 665 666 345
f 510 666 490
f 345 666 453
f 302 667 198
f 380 497 667
f 669 668 482
f 467 502 668
f 480 669 482
f 669 332 416
f 609 670 153
f 517 670 513
f 671 690 691
f 692 671 328
f 561 672 204
f 218 672 562
f 400 673 485
f 237 571 673
f 583 674 320
f 326 674 582
f 552 675 229
f 314 675 585
f 603 676 143
f 150 676 604
f 518 677 425
f 609 677 513
f 679 678 323
f 601 615 678
f 328 679 323
f 680 679 605
f 606 680 605
f 678 680 601
f 616 681 290
f 601 681 615
f 682 336 337
f 683 682 248
f 636 683 161
f 682 683 617
f 302 684 381
f 433 684 198
f 362 685 169
f 421 685 625
f 629 686 336
f 624 686 626
f 608 687 607
f 688 687 605
f 679 688 605
f 694 688 328
f 453 689 339
f 52 689 654
f 564 690 549
f 691 690 502
f 423 691 502
f 694 648 649
f 327 692 328
f 693 326 566
f 693 549 690
f 326 693 692
f 671 694 328
f 648 694 691
